<?xml version="1.0" encoding="UTF-8" standalone="no"?>
<svg
   width="16"
   height="16"
   fill="currentColor"
   class="bi bi-list"
   viewBox="0 0 16 16"
   version="1.1"
   id="svg134"
   sodipodi:docname="list.svg"
   xml:space="preserve"
   inkscape:export-filename="search_icon.png"
   inkscape:export-xdpi="96"
   inkscape:export-ydpi="96"
   inkscape:version="1.2.2 (732a01da63, 2022-12-09)"
   xmlns:inkscape="http://www.inkscape.org/namespaces/inkscape"
   xmlns:sodipodi="http://sodipodi.sourceforge.net/DTD/sodipodi-0.dtd"
   xmlns="http://www.w3.org/2000/svg"
   xmlns:svg="http://www.w3.org/2000/svg"><defs
     id="defs138" /><sodipodi:namedview
     id="namedview136"
     pagecolor="#ffffff"
     bordercolor="#000000"
     borderopacity="0.25"
     inkscape:showpageshadow="2"
     inkscape:pageopacity="0.0"
     inkscape:pagecheckerboard="0"
     inkscape:deskcolor="#d1d1d1"
     showgrid="false"
     inkscape:zoom="12.90625"
     inkscape:cx="-6.7021792"
     inkscape:cy="20.571429"
     inkscape:window-width="1920"
     inkscape:window-height="1013"
     inkscape:window-x="-9"
     inkscape:window-y="-9"
     inkscape:window-maximized="1"
     inkscape:current-layer="svg134" /><path
     fill-rule="evenodd"
     d="m -18.648143,10.794665 a 0.5,0.5 0 0 1 0.5,-0.5 h 10.0000003 a 0.5,0.5 0 0 1 0,1 H -18.148143 a 0.5,0.5 0 0 1 -0.5,-0.5 z m 0,-3.9999996 a 0.5,0.5 0 0 1 0.5,-0.5 h 10.0000003 a 0.5,0.5 0 0 1 0,1 H -18.148143 a 0.5,0.5 0 0 1 -0.5,-0.5 z m 0,-4 a 0.5,0.5 0 0 1 0.5,-0.5 h 10.0000003 a 0.5,0.5 0 0 1 0,1 H -18.148143 a 0.5,0.5 0 0 1 -0.5,-0.5 z"
     id="path132" /><path
     d="m 74.212819,-4.3960632 c -1.136566,0 -2.057891,-0.9213684 -2.057891,-2.0579348 0,-1.1365664 0.921325,-2.0579347 2.057891,-2.0579347 1.13661,0 2.057978,0.9213683 2.057978,2.0579347 0,1.1365664 -0.921368,2.0579348 -2.057978,2.0579348"
     style="fill:#ffffff;fill-opacity:1;fill-rule:nonzero;stroke:none;stroke-width:0.004358"
     id="path427" /><path
     d="m 72.749011,-6.4972729 c -0.03099,0 -0.06206,-0.011331 -0.08651,-0.034123 -0.05116,-0.047764 -0.05391,-0.1279945 -0.0061,-0.179201 0.416102,-0.4457362 0.969917,-0.6912224 1.559511,-0.6912224 0.589637,0 1.143495,0.2454862 1.559423,0.691266 0.04776,0.051163 0.04497,0.1313937 -0.0062,0.1791574 -0.05116,0.047807 -0.131394,0.045018 -0.179158,-0.00619 -0.36751,-0.3938325 -0.855475,-0.6107301 -1.374077,-0.6107301 -0.518559,0 -1.006567,0.2168976 -1.374165,0.6107301 -0.02497,0.026758 -0.05879,0.040268 -0.09269,0.040312"
     style="fill:#505051;fill-opacity:1;fill-rule:nonzero;stroke:none;stroke-width:0.004358"
     id="path429" /><path
     d="m 75.221086,-6.0028142 c -0.03391,0 -0.06772,-0.013553 -0.0927,-0.040311 -0.244266,-0.2616543 -0.568326,-0.4057734 -0.912521,-0.4057734 -0.344282,0 -0.668387,0.1441191 -0.912565,0.4057734 -0.04776,0.05125 -0.127951,0.053996 -0.179158,0.00619 -0.05121,-0.047764 -0.05395,-0.1279944 -0.0062,-0.1791573 0.29264,-0.3136453 0.682593,-0.4863528 1.097911,-0.4863528 0.41523,0 0.80514,0.1727075 1.097867,0.4863092 0.04776,0.051207 0.04497,0.1314373 -0.0061,0.1791574 -0.02445,0.022836 -0.05552,0.034123 -0.08651,0.034167"
     style="fill:#505051;fill-opacity:1;fill-rule:nonzero;stroke:none;stroke-width:0.004358"
     id="path431" /><path
     d="m 75.221086,-6.0028142 c -0.03391,0 -0.06772,-0.013553 -0.0927,-0.040311 -0.244266,-0.2616543 -0.568326,-0.4057734 -0.912521,-0.4057734 -0.344282,0 -0.668387,0.1441191 -0.912565,0.4057734 -0.04776,0.05125 -0.127951,0.053952 -0.179158,0.00619 -0.05121,-0.047764 -0.05395,-0.1279944 -0.0062,-0.1791573 0.29264,-0.3136453 0.682593,-0.4863528 1.097911,-0.4863528 0.41523,0 0.80514,0.1727075 1.097867,0.4863092 0.04776,0.051207 0.04497,0.1314373 -0.0061,0.1791574 -0.02445,0.022836 -0.05552,0.034167 -0.08651,0.034167"
     style="fill:#505051;fill-opacity:1;fill-rule:nonzero;stroke:none;stroke-width:0.004358"
     id="path433" /><path
     d="m 74.781059,-5.5314094 c -0.03391,0 -0.06772,-0.013553 -0.09269,-0.040268 -0.126774,-0.1358388 -0.294557,-0.2105785 -0.472494,-0.2105785 -0.177981,0 -0.345764,0.07474 -0.472538,0.2105785 -0.04776,0.051207 -0.127995,0.053952 -0.179158,0.00619 -0.05116,-0.047764 -0.05395,-0.1279945 -0.0062,-0.179201 0.175235,-0.187699 0.408824,-0.2911144 0.657884,-0.2911144 0.248972,0 0.482605,0.1034154 0.65784,0.2911144 0.04776,0.051207 0.04497,0.1314373 -0.0062,0.179201 -0.02445,0.022792 -0.05552,0.034079 -0.08646,0.034079"
     style="fill:#505051;fill-opacity:1;fill-rule:nonzero;stroke:none;stroke-width:0.004358"
     id="path435" /><path
     d="m 74.35842,-5.2372008 c 0,0.075611 -0.05718,0.1368848 -0.127689,0.1368848 -0.0706,0 -0.127733,-0.061273 -0.127733,-0.1368848 0,-0.075524 0.05713,-0.1367976 0.127733,-0.1367976 0.07051,0 0.127689,0.061273 0.127689,0.1367976"
     style="fill:#505051;fill-opacity:1;fill-rule:nonzero;stroke:none;stroke-width:0.004358"
     id="path437" /><path
     d="m 41.033622,1.7446203 c -1.136566,0 -2.057935,-0.92136838 -2.057935,-2.05793478 0,-1.13656642 0.921369,-2.05793472 2.057935,-2.05793472 1.13661,0 2.057935,0.9213683 2.057935,2.05793472 0,1.1365664 -0.921325,2.05793478 -2.057935,2.05793478"
     style="fill:#ffffff;fill-opacity:1;fill-rule:nonzero;stroke:none;stroke-width:0.004358"
     id="path439" /><path
     d="m 40.195666,-0.65694278 -0.190358,-0.1427245 h 0.190358 z M 41.786902,-1.468751 v 0.82479506 c 0,0.008324 0.0017,0.0161682 0.0049,0.0233153 l -0.755546,0.59412614 -0.72382,-0.54283248 V -1.468751 Z m 0.232587,0.66908372 -0.115836,0.0910386 v -0.0910386 z m -0.489622,0.53354994 0.599923,-0.4717535 v 1.31707476 z m -0.9293,0.0588766 0.401459,0.30109422 c 0.01042,0.0078008 0.02271,0.01167944 0.03504,0.01167944 0.01277,0 0.02554,-0.004184 0.03608,-0.01250746 l 0.364765,-0.28684356 0.637226,0.89779158 h -2.1213 z m -0.712053,-0.5340729 0.618574,0.46395268 -0.618574,0.87155642 z m 2.351359,1.5303117 0.0025,-0.005012 0.0017,-0.005578 0.0014,-0.005273 6.97e-4,-0.006929 3.92e-4,-0.003835 v -1.62047872 l -1.74e-4,-0.001961 -6.54e-4,-0.006406 -8.72e-4,-0.005099 -0.0017,-0.005578 -0.002,-0.005317 -0.0026,-0.004707 -0.0034,-0.005317 -0.0011,-0.0017 -0.0022,-0.00231 -0.0044,-0.004489 -0.0042,-0.003486 -0.0048,-0.003269 -0.0049,-0.002658 -0.0053,-0.002266 -0.0053,-0.001656 -0.0056,-0.00122 -0.006,-6.1012e-4 -0.0034,-3.4864e-4 H 41.903653 V -1.5271482 c 0,-0.032249 -0.0261,-0.058397 -0.05835,-0.058397 h -1.59128 c -0.03225,0 -0.05835,0.026148 -0.05835,0.058397 v 0.61064294 h -0.365549 l -0.0034,3.4864e-4 -0.0068,6.9728e-4 -0.0049,0.001177 -0.006,0.001874 -0.0047,0.002179 -0.0053,0.002876 -0.0044,0.003138 -0.0045,0.003748 -0.0041,0.004489 -0.0026,0.002876 -7.41e-4,0.001177 -0.0033,0.005491 -0.0024,0.004532 -0.002,0.005448 -0.0017,0.005447 -7.41e-4,0.005142 -6.54e-4,0.006406 -1.31e-4,0.001351 v 1.62047872 c 0,0.0322492 0.02615,0.0583972 0.0584,0.0583972 h 2.35807 4.3e-5 4.4e-5 8.7e-5 c 0.0054,-4.358e-5 0.01046,-0.001002 0.01538,-0.002353 l 0.0035,-0.00109 c 0.0051,-0.001787 0.0099,-0.004053 0.01425,-0.00706 l 4.79e-4,-2.6148e-4 0.0033,-0.002833 0.0048,-0.004227 0.0036,-0.004445 0.0034,-0.004445 0.0027,-0.005055"
     style="fill:#505051;fill-opacity:1;fill-rule:nonzero;stroke:none;stroke-width:0.004358"
     id="path441" /><path
     d="m 40.538727,-0.9870177 h 0.992709 c 0.03225,0 0.0584,-0.026148 0.0584,-0.0583972 0,-0.032249 -0.02615,-0.058397 -0.0584,-0.058397 h -0.992709 c -0.03225,0 -0.0584,0.026148 -0.0584,0.058397 0,0.032249 0.02615,0.0583972 0.0584,0.0583972"
     style="fill:#505051;fill-opacity:1;fill-rule:nonzero;stroke:none;stroke-width:0.004358"
     id="path443" /><path
     d="m 40.538727,-0.58921946 h 0.992709 c 0.03225,0 0.0584,-0.0261044 0.0584,-0.0583972 0,-0.0322056 -0.02615,-0.0583536 -0.0584,-0.0583536 h -0.992709 c -0.03225,0 -0.0584,0.026148 -0.0584,0.0583536 0,0.0322928 0.02615,0.0583972 0.0584,0.0583972"
     style="fill:#505051;fill-opacity:1;fill-rule:nonzero;stroke:none;stroke-width:0.004358"
     id="path445" /><path
     d="m 49.328465,-4.3960632 c -1.136567,0 -2.057979,-0.9213684 -2.057979,-2.0579348 0,-1.1366099 0.921412,-2.0579347 2.057979,-2.0579347 1.136566,0 2.057935,0.9213248 2.057935,2.0579347 0,1.1365664 -0.921369,2.0579348 -2.057935,2.0579348"
     style="fill:#ffffff;fill-opacity:1;fill-rule:nonzero;stroke:none;stroke-width:0.004358"
     id="path447" /><path
     d="m 48.479134,-6.2327423 c -0.310115,-0.3101589 -0.310115,-0.8148588 0,-1.1250177 0.150264,-0.1501767 0.350035,-0.2329787 0.562487,-0.2329787 0.212496,0 0.412224,0.082802 0.562487,0.2329787 0.310159,0.3101589 0.310159,0.8148588 0,1.1250177 -0.150263,0.1502203 -0.349991,0.2329787 -0.562487,0.2329787 -0.212452,0 -0.412223,-0.082758 -0.562487,-0.2329787 z m 2.105742,0.8365181 -0.768054,-0.7680539 c 0.319703,-0.3921764 0.296867,-0.972357 -0.06851,-1.3376881 -0.188745,-0.188745 -0.439766,-0.2926833 -0.706694,-0.2926833 -0.266927,0 -0.517904,0.1039383 -0.706693,0.2926833 -0.389692,0.3896923 -0.389692,1.0237813 0,1.4134301 0.188789,0.1887886 0.439766,0.2927705 0.706693,0.2927705 0.23263,0 0.453145,-0.079011 0.630952,-0.2242627 l 0.768053,0.7680539 c 0.01992,0.019916 0.04602,0.029852 0.07208,0.029852 0.0261,0 0.05221,-0.00994 0.07217,-0.029852 0.03979,-0.039832 0.03979,-0.1044177 0,-0.1442498"
     style="fill:#505051;fill-opacity:1;fill-rule:nonzero;stroke:none;stroke-width:0.004358"
     id="path449" /><path
     d="m 48.681563,-7.3493491 c -0.05116,0.02362 -0.07348,0.084197 -0.04985,0.1353159 0.02362,0.051163 0.08424,0.073389 0.135316,0.049899 0.0032,-0.00148 0.316826,-0.1415914 0.60951,0.1267307 0.01957,0.017955 0.04428,0.026845 0.0689,0.026845 0.02754,-4.36e-5 0.05508,-0.011157 0.07518,-0.033077 0.03809,-0.041532 0.03526,-0.1060301 -0.0062,-0.1440754 -0.391653,-0.3590121 -0.814989,-0.1698749 -0.832814,-0.1616383"
     style="fill:#505051;fill-opacity:1;fill-rule:nonzero;stroke:none;stroke-width:0.004358"
     id="path451" /><path
     d="m 65.91802,1.7446203 c -1.136567,0 -2.057935,-0.92136838 -2.057935,-2.05793478 0,-1.13656642 0.921368,-2.05793472 2.057935,-2.05793472 1.136566,0 2.057978,0.9213683 2.057978,2.05793472 0,1.1365664 -0.921412,2.05793478 -2.057978,2.05793478"
     style="fill:#ffffff;fill-opacity:1;fill-rule:nonzero;stroke:none;stroke-width:0.004358"
     id="path453" /><path
     d="m 65.111528,0.7587971 v -2.2343466 h 1.374252 v 0.3832861 c 0,0.030985 0.0251,0.056088 0.05609,0.056088 h 0.317872 v 1.794973 z m 1.486427,-2.1327616 0.201078,0.2256136 h -0.201078 z m 0.359753,0.2350269 -0.383286,-0.4300474 c -0.01063,-0.011941 -0.02589,-0.018739 -0.04184,-0.018739 h -1.477144 c -0.03099,0 -0.05613,0.025102 -0.05613,0.056087 v 2.34652156 c 0,0.0309854 0.02515,0.056131 0.05613,0.056131 h 1.860387 c 0.03099,0 0.05613,-0.0251457 0.05613,-0.056131 V -1.1016331 c 0,-0.013771 -0.0051,-0.02702 -0.01425,-0.037305"
     style="fill:#505051;fill-opacity:1;fill-rule:nonzero;stroke:none;stroke-width:0.004358"
     id="path455" /><path
     d="M 66.588672,-0.84921774 H 65.3639 c -0.03099,0 -0.05609,0.0251021 -0.05609,0.0560875 0,0.0309854 0.0251,0.0560875 0.05609,0.0560875 h 1.224772 c 0.03094,0 0.05604,-0.0251021 0.05604,-0.0560875 0,-0.0309854 -0.0251,-0.0560875 -0.05604,-0.0560875"
     style="fill:#505051;fill-opacity:1;fill-rule:nonzero;stroke:none;stroke-width:0.004358"
     id="path457" /><path
     d="M 66.588672,-0.39812116 H 65.3639 c -0.03099,0 -0.05609,0.0251457 -0.05609,0.0560875 0,0.0309854 0.0251,0.0560875 0.05609,0.0560875 h 1.224772 c 0.03094,0 0.05604,-0.0251021 0.05604,-0.0560875 0,-0.0309418 -0.0251,-0.0560875 -0.05604,-0.0560875"
     style="fill:#505051;fill-opacity:1;fill-rule:nonzero;stroke:none;stroke-width:0.004358"
     id="path459" /><path
     d="M 66.588672,0.10209008 H 65.3639 c -0.03099,0 -0.05609,0.0251021 -0.05609,0.0560875 0,0.0309418 0.0251,0.0560439 0.05609,0.0560439 h 1.224772 c 0.03094,0 0.05604,-0.0251021 0.05604,-0.0560439 0,-0.0309854 -0.0251,-0.0560875 -0.05604,-0.0560875"
     style="fill:#505051;fill-opacity:1;fill-rule:nonzero;stroke:none;stroke-width:0.004358"
     id="path461" /><path
     d="m 74.212819,1.7446203 c -1.136523,0 -2.057891,-0.92136838 -2.057891,-2.05793478 0,-1.13656642 0.921368,-2.05793472 2.057891,-2.05793472 1.13661,0 2.057978,0.9213683 2.057978,2.05793472 0,1.1365664 -0.921368,2.05793478 -2.057978,2.05793478"
     style="fill:#ffffff;fill-opacity:1;fill-rule:nonzero;stroke:none;stroke-width:0.004358"
     id="path463" /><path
     d="m 72.949566,0.70850578 v -0.85560614 h 2.52655 v 0.85560614 z m 2.52655,-1.70328072 v 0.75271376 h -2.52655 V -0.99477494 Z M 73.72176,-1.2235264 c 0,-0.069902 0.05687,-0.1267742 0.12673,-0.1267742 h 0.728702 c 0.0699,0 0.126774,0.056872 0.126774,0.1267742 V -1.120111 H 73.72176 Z m 1.817024,0.1034154 H 74.79897 v -0.1034154 c 0,-0.1222854 -0.09949,-0.2217786 -0.221778,-0.2217786 H 73.84849 c -0.122285,0 -0.221691,0.099493 -0.221691,0.2217786 v 0.1034154 h -0.739901 c -0.0346,0 -0.06267,0.028066 -0.06267,0.062668 v 1.82861682 c 0,0.0346025 0.02806,0.062668 0.06267,0.062668 h 2.651886 c 0.0346,0 0.06267,-0.0280655 0.06267,-0.062668 V -1.057443 c 0,-0.034603 -0.02806,-0.062668 -0.06267,-0.062668"
     style="fill:#505051;fill-opacity:1;fill-rule:nonzero;stroke:none;stroke-width:0.004358"
     id="path465" /><path
     d="m 74.402828,-0.05344694 h -0.37993 c -0.02624,0 -0.0475,0.02126704 -0.0475,0.0475022 0,0.02623516 0.02127,0.0475022 0.0475,0.0475022 h 0.37993 c 0.02623,0 0.0475,-0.02126704 0.0475,-0.0475022 0,-0.02623516 -0.02127,-0.0475022 -0.0475,-0.0475022"
     style="fill:#505051;fill-opacity:1;fill-rule:nonzero;stroke:none;stroke-width:0.004358"
     id="path467" /><path
     d="m 57.623221,1.7446203 c -1.136567,0 -2.057935,-0.92136838 -2.057935,-2.05793478 0,-1.13656642 0.921368,-2.05793472 2.057935,-2.05793472 1.136566,0 2.057934,0.9213683 2.057934,2.05793472 0,1.1365664 -0.921368,2.05793478 -2.057934,2.05793478"
     style="fill:#ffffff;fill-opacity:1;fill-rule:nonzero;stroke:none;stroke-width:0.004358"
     id="path469" /><path
     d="M 58.832609,0.66614602 H 56.413832 V -1.2596542 h 0.752365 l 0.254769,0.32545546 c 0.01333,0.0170398 0.03382,0.0270196 0.05548,0.0270196 h 1.356166 z M 58.656502,-1.1714483 v 0.123375 h -1.145761 l -0.09657,-0.123375 z m 0.246576,0.123375 h -0.105682 v -0.1938438 c 0,-0.038917 -0.03151,-0.070469 -0.07043,-0.070469 h -1.423105 l -0.04789,-0.061143 c -0.01329,-0.01704 -0.03377,-0.02702 -0.05543,-0.02702 h -0.857175 c -0.03892,0 -0.07047,0.031552 -0.07047,0.070469 v 2.06669438 c 0,0.0389169 0.03155,0.0704253 0.07047,0.0704253 h 2.559715 c 0.03892,0 0.07047,-0.0315083 0.07047,-0.0704253 v -1.7142193 c 0,-0.038917 -0.03155,-0.0704689 -0.07047,-0.0704689"
     style="fill:#505051;fill-opacity:1;fill-rule:nonzero;stroke:none;stroke-width:0.004358"
     id="path471" /><path
     d="m 82.507749,14.025987 c -1.136566,0 -2.057847,-0.921368 -2.057847,-2.057935 0,-1.136609 0.921281,-2.0579343 2.057847,-2.0579343 1.136567,0 2.057848,0.9213253 2.057848,2.0579343 0,1.136567 -0.921281,2.057935 -2.057848,2.057935"
     style="fill:#ffffff;fill-opacity:1;fill-rule:nonzero;stroke:none;stroke-width:0.004358"
     id="path473" /><path
     d="m 81.252209,12.700196 v -0.267494 h 2.51108 v 0.267494 z m 1.497845,0.476025 h -0.49594 l 0.07975,-0.366464 h 0.336438 z m 1.013235,-2.12008 v 0.147475 h -2.51108 v -0.147475 z m -2.51108,0.227444 h 2.51108 v 1.069105 h -2.51108 z m 2.565555,-0.337004 h -2.620465 c -0.03007,0 -0.05447,0.02449 -0.05447,0.05478 v 1.753572 c 0,0.03033 0.0244,0.05482 0.05447,0.05482 h 1.031974 l -0.07975,0.366464 h -0.132048 c -0.02833,0 -0.05099,0.02284 -0.05099,0.05108 0,0.02824 0.02266,0.05107 0.05099,0.05107 h 0.980114 c 0.02833,0 0.05099,-0.02284 0.05099,-0.05107 0,-0.02824 -0.02266,-0.05108 -0.05099,-0.05108 h -0.142942 l -0.07975,-0.366464 h 1.042869 c 0.03051,0 0.05491,-0.02449 0.05491,-0.05482 v -1.753572 c 0,-0.03029 -0.02441,-0.05478 -0.05491,-0.05478"
     style="fill:#505051;fill-opacity:1;fill-rule:nonzero;stroke:none;stroke-width:0.004358"
     id="path475" /><path
     d="m 82.507749,12.507747 c -0.02876,0 -0.0523,0.02332 -0.0523,0.05212 0,0.02885 0.02353,0.05216 0.0523,0.05216 0.02876,0 0.05186,-0.02332 0.05186,-0.05216 0,-0.02881 -0.0231,-0.05212 -0.05186,-0.05212"
     style="fill:#505051;fill-opacity:1;fill-rule:nonzero;stroke:none;stroke-width:0.004358"
     id="path477" /><path
     d="m 57.623221,14.025987 c -1.136567,0 -2.057935,-0.921368 -2.057935,-2.057935 0,-1.136609 0.921368,-2.0579343 2.057935,-2.0579343 1.136566,0 2.057978,0.9213253 2.057978,2.0579343 0,1.136567 -0.921412,2.057935 -2.057978,2.057935"
     style="fill:#ffffff;fill-opacity:1;fill-rule:nonzero;stroke:none;stroke-width:0.004358"
     id="path479" /><path
     d="m 57.050449,13.020509 v -0.309635 h 1.145587 v 0.309635 z m 1.145587,-2.104914 v 0.166258 h -1.145587 v -0.166258 z m -1.145587,0.25782 h 1.145587 v 1.445897 h -1.145587 z m 1.208255,-0.383199 h -1.270923 c -0.0346,0 -0.06267,0.02807 -0.06267,0.06267 v 2.230337 c 0,0.0346 0.02806,0.06267 0.06267,0.06267 h 1.270923 c 0.0346,0 0.06267,-0.02806 0.06267,-0.06267 v -2.230337 c 0,-0.0346 -0.02806,-0.06267 -0.06267,-0.06267"
     style="fill:#505051;fill-opacity:1;fill-rule:nonzero;stroke:none;stroke-width:0.004358"
     id="path481" /><path
     d="m 57.623264,12.804048 c -0.04576,0 -0.08272,0.03709 -0.08272,0.08271 0,0.04576 0.03696,0.08276 0.08272,0.08276 0.04563,0 0.08267,-0.037 0.08267,-0.08276 0,-0.04563 -0.03704,-0.08271 -0.08267,-0.08271"
     style="fill:#505051;fill-opacity:1;fill-rule:nonzero;stroke:none;stroke-width:0.004358"
     id="path483" /><path
     d="m 57.623264,11.045246 c 0.01843,0 0.03347,-0.0149 0.03347,-0.03351 0,-0.01843 -0.01504,-0.03347 -0.03347,-0.03347 -0.01857,0 -0.03351,0.01504 -0.03351,0.03347 0,0.01861 0.01495,0.03351 0.03351,0.03351"
     style="fill:#505051;fill-opacity:1;fill-rule:nonzero;stroke:none;stroke-width:0.004358"
     id="path485" /><path
     d="m 74.212819,14.025987 c -1.136566,0 -2.057891,-0.921368 -2.057891,-2.057935 0,-1.136566 0.921325,-2.0579343 2.057891,-2.0579343 1.13661,0 2.057978,0.9213683 2.057978,2.0579343 0,1.136567 -0.921368,2.057935 -2.057978,2.057935"
     style="fill:#ffffff;fill-opacity:1;fill-rule:nonzero;stroke:none;stroke-width:0.004358"
     id="path487" /><path
     d="m 74.212819,11.156985 c 0.0149,0 0.02693,-0.01203 0.02693,-0.02693 0,-0.01491 -0.01203,-0.02689 -0.02693,-0.02689 -0.01486,0 -0.02693,0.01198 -0.02693,0.02689 0,0.0149 0.01207,0.02693 0.02693,0.02693"
     style="fill:#505051;fill-opacity:1;fill-rule:nonzero;stroke:none;stroke-width:0.004358"
     id="path489" /><path
     d="m 74.212819,12.417493 c -0.02044,0 -0.037,0.0166 -0.037,0.037 0,0.02053 0.01656,0.03709 0.037,0.03709 0.02048,0 0.03709,-0.01656 0.03709,-0.03709 0,-0.0204 -0.0166,-0.037 -0.03709,-0.037"
     style="fill:#505051;fill-opacity:1;fill-rule:nonzero;stroke:none;stroke-width:0.004358"
     id="path491" /><path
     d="m 75.325329,11.082768 v 0.129346 h -2.224977 v -0.129346 z m -2.297581,1.61185 0.06681,-0.04628 h 2.236613 l 0.06685,0.04628 z m 2.297581,-0.373306 h -2.224977 v -1.037771 h 2.224977 z m -2.224977,0.21254 v -0.141156 h 2.224977 v 0.141156 z m -0.25564,0.275251 h 2.736301 c 0.02501,0 0.04715,-0.01626 0.05461,-0.04018 0.0075,-0.02388 -0.0014,-0.04981 -0.02201,-0.06406 L 75.43977,12.584404 v -1.5589 c 0,-0.03159 -0.02562,-0.05722 -0.05722,-0.05722 h -2.339418 c -0.0316,0 -0.05722,0.02562 -0.05722,0.05722 v 1.5589 l -0.173797,0.120456 c -0.02053,0.01425 -0.02946,0.04018 -0.02205,0.06406 0.0075,0.02393 0.02963,0.04018 0.05465,0.04018"
     style="fill:#505051;fill-opacity:1;fill-rule:nonzero;stroke:none;stroke-width:0.004358"
     id="path493" /><path
     d="m 75.608774,12.862968 h -2.791822 c -0.02637,0 -0.04772,0.02131 -0.04772,0.04768 0,0.02632 0.02135,0.04763 0.04772,0.04763 h 2.791822 c 0.02632,0 0.04768,-0.02131 0.04768,-0.04763 0,-0.02637 -0.02135,-0.04768 -0.04768,-0.04768"
     style="fill:#505051;fill-opacity:1;fill-rule:nonzero;stroke:none;stroke-width:0.004358"
     id="path495" /><path
     d="m 41.033622,7.8853038 c -1.136566,0 -2.057935,-0.9213684 -2.057935,-2.0579348 0,-1.1365664 0.921369,-2.0579348 2.057935,-2.0579348 1.13661,0 2.057935,0.9213684 2.057935,2.0579348 0,1.1365664 -0.921325,2.0579348 -2.057935,2.0579348"
     style="fill:#ffffff;fill-opacity:1;fill-rule:nonzero;stroke:none;stroke-width:0.004358"
     id="path497" /><path
     d="M 42.124996,7.0489164 H 40.522952 V 4.6058216 h 1.602044 z M 40.162458,6.7685663 h 0.110214 c 0.03316,0 0.06005,-0.026889 0.06005,-0.060097 0,-0.033164 -0.02689,-0.060053 -0.06005,-0.060053 H 40.162458 V 6.328016 h 0.110214 c 0.03316,0 0.06005,-0.026889 0.06005,-0.060097 0,-0.033164 -0.02689,-0.060053 -0.06005,-0.060053 H 40.162458 V 5.8874222 h 0.110214 c 0.03316,0 0.06005,-0.026889 0.06005,-0.060053 0,-0.033208 -0.02689,-0.060097 -0.06005,-0.060097 H 40.162458 V 5.446872 h 0.110214 c 0.03316,0 0.06005,-0.026889 0.06005,-0.060053 0,-0.033208 -0.02689,-0.060097 -0.06005,-0.060097 H 40.162458 V 5.0063654 h 0.110214 c 0.03316,0 0.06005,-0.026933 0.06005,-0.060097 0,-0.033164 -0.02689,-0.060097 -0.06005,-0.060097 H 40.162458 V 4.6058216 h 0.240343 v 2.4430948 h -0.240343 z m 2.022591,-2.2828948 h -2.082644 c -0.03321,0 -0.06005,0.026889 -0.06005,0.060053 v 0.3404469 h -0.1602 c -0.03316,0 -0.06005,0.026933 -0.06005,0.060097 0,0.033164 0.02689,0.060097 0.06005,0.060097 h 0.1602 V 5.326722 h -0.1602 c -0.03316,0 -0.06005,0.026889 -0.06005,0.060097 0,0.033164 0.02689,0.060053 0.06005,0.060053 h 0.1602 v 0.3204002 h -0.1602 c -0.03316,0 -0.06005,0.026889 -0.06005,0.060097 0,0.033164 0.02689,0.060053 0.06005,0.060053 h 0.1602 V 6.207866 h -0.1602 c -0.03316,0 -0.06005,0.026889 -0.06005,0.060053 0,0.033208 0.02689,0.060097 0.06005,0.060097 h 0.1602 v 0.3204002 h -0.1602 c -0.03316,0 -0.06005,0.026889 -0.06005,0.060053 0,0.033208 0.02689,0.060097 0.06005,0.060097 h 0.1602 v 0.3404469 c 0,0.033164 0.02685,0.060097 0.06005,0.060097 h 2.082644 c 0.03321,0 0.0601,-0.026932 0.0601,-0.060097 V 4.5457248 c 0,-0.033164 -0.02689,-0.060053 -0.0601,-0.060053"
     style="fill:#505051;fill-opacity:1;fill-rule:nonzero;stroke:none;stroke-width:0.004358"
     id="path499" /><path
     d="m 82.507749,1.7446203 c -1.136566,0 -2.057847,-0.92136838 -2.057847,-2.05793478 0,-1.13656642 0.921281,-2.05793472 2.057847,-2.05793472 1.136567,0 2.057848,0.9213683 2.057848,2.05793472 0,1.1365664 -0.921281,2.05793478 -2.057848,2.05793478"
     style="fill:#ffffff;fill-opacity:1;fill-rule:nonzero;stroke:none;stroke-width:0.004358"
     id="path501" /><path
     d="m 82.928732,-0.13555166 -0.01613,-0.0162989 0.66721,-0.66703548 0.01612,0.0162553 z m -1.006698,0.8099343 -0.409216,-0.40947768 -4.36e-4,-8.716e-5 -0.0017,-0.00183 0.793156,-0.79289452 0.207005,0.20726648 0.20439,0.2041723 z M 81.552476,0.7672952 81.42435,0.63917 81.501923,0.38187368 81.809598,0.6895049 Z m -0.139456,-0.0118538 0.0231,0.0229231 -0.03051,0.007626 z m 0.987958,-1.31537514 0.556953,-0.55651656 0.349947,0.350296 -0.556517,0.55660376 -0.176499,-0.17654258 z m 0.681156,-0.74866076 4.35e-4,1.307e-4 0.0035,0.0054 0.406601,0.40686288 -0.08847,0.0886853 -0.411395,-0.41139518 z m 0.153401,-0.080361 c 0.03356,-0.033469 0.0767,-0.040486 0.107207,-0.040486 0.06624,0 0.13902,0.033339 0.194803,0.089165 0.04837,0.048287 0.07932,0.1075119 0.08716,0.1667807 0.0074,0.054824 -0.0065,0.102718 -0.03879,0.1348801 l -0.05317,0.0531676 -0.350383,-0.35038316 z m 0.376096,0.47449896 c -0.0039,-0.003922 -0.0087,-0.006668 -0.01351,-0.008847 l 0.05142,-0.0515551 c 0.05273,-0.0524703 0.07539,-0.12721006 0.0645,-0.21049146 -0.01046,-0.078793 -0.05055,-0.1564522 -0.112873,-0.2186844 -0.07321,-0.073432 -0.167783,-0.1155306 -0.258429,-0.1155306 -0.06711,0 -0.127689,0.023751 -0.170834,0.066852 l -0.05317,0.053168 -0.0044,-0.00458 c -0.01787,-0.017606 -0.04619,-0.01765 -0.06406,-4.36e-5 l -0.153401,0.1533581 c -0.0083,0.00845 -0.01307,0.019916 -0.01307,0.031901 0,0.011897 0.0048,0.023402 0.01307,0.031813 l 0.0022,0.00196 -0.561747,0.56152836 -0.0017,-0.001874 c -0.01787,-0.0176063 -0.04619,-0.0176063 -0.06363,0 l -0.856782,0.8565649 c -0.01787,0.0176063 -0.01787,0.0461512 0,0.063714 l 0.01482,0.0147736 -0.0998,0.32937764 c -0.0044,0.0145121 -4.36e-4,0.0299395 0.0087,0.0414882 l -0.03879,0.15649578 c -0.0039,0.0153837 4.36e-4,0.0315955 0.01177,0.0427956 0.0083,0.008542 0.02005,0.0131612 0.03181,0.0131612 l 0.0109,-0.001307 0.156888,-0.0391348 c 0.0078,0.006711 0.01787,0.0108514 0.02833,0.0108514 0.0044,0 0.0087,-6.1012e-4 0.01307,-0.001918 l 0.329029,-0.0995367 0.0083,0.008193 c 0.0083,0.008455 0.02005,0.0131612 0.03181,0.0131612 0.01177,0 0.02353,-0.004707 0.03181,-0.0131612 L 82.81063,-0.0866549 c 0.0074,-0.0073214 0.01133,-0.01703978 0.0122,-0.0272375 l 0.07409,0.07391168 c 0.0087,0.0088032 0.02048,0.01320474 0.03181,0.01320474 0.01177,0 0.0231,-0.0044016 0.03181,-0.01320474 l 0.730837,-0.73079302 c 0.01787,-0.0176063 0.01787,-0.0461076 0,-0.063714 l -0.07975,-0.0799693"
     style="fill:#505051;fill-opacity:1;fill-rule:nonzero;stroke:none;stroke-width:0.004358"
     id="path503" /><path
     d="m 82.617571,-0.16736506 c -0.01787,-0.0176063 -0.04619,-0.0176063 -0.06363,-4.358e-5 l -0.479816,0.47933642 c -0.01743,0.0176499 -0.01743,0.0461948 0,0.0637575 0.0092,0.008803 0.02048,0.0132047 0.03225,0.0132047 0.01133,0 0.02266,-0.004402 0.03181,-0.0132047 l 0.47938,-0.47933642 c 0.01743,-0.0176063 0.01743,-0.0461512 0,-0.063714"
     style="fill:#505051;fill-opacity:1;fill-rule:nonzero;stroke:none;stroke-width:0.004358"
     id="path505" /><path
     d="M 81.98261,0.40353294 81.87889,0.5075584 c -0.01787,0.0176063 -0.01787,0.0461512 0,0.063714 0.0087,0.008803 0.02005,0.0132047 0.03181,0.0132047 0.01133,0 0.0231,-0.004402 0.03181,-0.0132047 l 0.104163,-0.1040255 c 0.01743,-0.0176063 0.01743,-0.0461512 -4.36e-4,-0.063714 -0.01743,-0.0176063 -0.04576,-0.0176063 -0.06363,0"
     style="fill:#505051;fill-opacity:1;fill-rule:nonzero;stroke:none;stroke-width:0.004358"
     id="path507" /><path
     d="m 41.033622,14.025987 c -1.136566,0 -2.057935,-0.921368 -2.057935,-2.057935 0,-1.136566 0.921369,-2.0579343 2.057935,-2.0579343 1.136566,0 2.057935,0.9213683 2.057935,2.0579343 0,1.136567 -0.921369,2.057935 -2.057935,2.057935"
     style="fill:#ffffff;fill-opacity:1;fill-rule:nonzero;stroke:none;stroke-width:0.004358"
     id="path509" /><path
     d="m 41.750949,12.719328 c -0.266274,0 -0.482867,-0.216593 -0.482867,-0.482823 0,-0.266143 0.216593,-0.482735 0.482867,-0.482735 0.26623,0 0.482823,0.216592 0.482823,0.482735 0,0.26623 -0.216593,0.482823 -0.482823,0.482823 z m -1.427289,0 c -0.266317,0 -0.482953,-0.216593 -0.482953,-0.482823 0,-0.266143 0.216636,-0.482735 0.482953,-0.482735 0.266187,0 0.482779,0.216592 0.482779,0.482735 0,0.26623 -0.216592,0.482823 -0.482779,0.482823 z m 2.104566,-1.334725 c -3.06e-4,-0.07574 -0.02549,-0.1473 -0.07095,-0.201557 -0.04816,-0.05753 -0.112698,-0.08751 -0.182556,-0.08868 -0.06951,2.61e-4 -0.134052,0.03225 -0.181729,0.09012 -0.04497,0.05456 -0.06955,0.126251 -0.06925,0.20195 1.31e-4,0.03369 0.02754,0.06093 0.06123,0.06093 h 3.05e-4 c 0.03377,-1.31e-4 0.06106,-0.02767 0.06092,-0.06149 -1.74e-4,-0.04711 0.01447,-0.09095 0.04127,-0.123549 0.0241,-0.0292 0.05526,-0.04541 0.08777,-0.0455 0.03138,5.23e-4 0.0638,0.01578 0.08816,0.04489 0.02715,0.03234 0.04218,0.07618 0.0424,0.123375 l 0.0024,0.615306 c -0.09221,-0.21668 -0.307239,-0.369036 -0.557257,-0.369036 -0.269586,0 -0.498381,0.177197 -0.57652,0.421158 -0.03778,-0.02776 -0.08428,-0.04437 -0.134662,-0.04437 -0.05217,0 -0.100147,0.01774 -0.138628,0.04724 -0.07718,-0.245486 -0.306847,-0.424034 -0.577479,-0.424034 -0.257427,0 -0.477244,0.161726 -0.564666,0.388647 l 0.0025,-0.634874 c 4.36e-4,-0.09296 0.05875,-0.168306 0.130174,-0.168306 h 4.35e-4 c 0.03613,8.8e-5 0.06267,0.01931 0.07862,0.03539 0.03229,0.03256 0.05068,0.08128 0.05042,0.133617 -1.75e-4,0.03382 0.02711,0.0614 0.06093,0.06154 h 2.61e-4 c 0.03369,0 0.0611,-0.02719 0.06123,-0.06093 4.36e-4,-0.08459 -0.0309,-0.164951 -0.08585,-0.220471 -0.04558,-0.04593 -0.104243,-0.07138 -0.165124,-0.0716 h -9.59e-4 c -0.138628,0 -0.251805,0.129912 -0.25259,0.290242 l -0.0033,0.844407 c -1.31e-4,0.03382 0.02715,0.06132 0.06097,0.06145 h 2.62e-4 c 0.0084,0 0.01647,-0.0017 0.02375,-0.0048 0.02519,0.310812 0.28571,0.556124 0.602929,0.556124 0.324889,0 0.59003,-0.257558 0.603932,-0.579091 0.0038,-0.008 0.0061,-0.01682 0.0061,-0.02628 0,-0.05835 0.04754,-0.105856 0.10603,-0.105856 0.05835,0 0.105856,0.0475 0.105856,0.105856 v 4.4e-5 4.3e-5 c 0,0.333779 0.271547,0.605283 0.605326,0.605283 0.316434,0 0.576476,-0.244179 0.602668,-0.553902 0.0054,0.0015 0.01089,0.0026 0.01669,0.0026 h 2.61e-4 c 0.03382,-1.3e-4 0.0611,-0.02763 0.06097,-0.06145 l -0.0033,-0.844407"
     style="fill:#505051;fill-opacity:1;fill-rule:nonzero;stroke:none;stroke-width:0.004358"
     id="path511" /><path
     d="m 40.475972,11.986269 c -0.01229,-0.01225 -0.03212,-0.01225 -0.04432,0 l -0.349816,0.349817 c -0.01225,0.01225 -0.01225,0.03207 0,0.04432 0.0061,0.0061 0.01416,0.0092 0.02218,0.0092 0.008,0 0.01604,-0.0031 0.02218,-0.0092 l 0.349773,-0.349816 c 0.0122,-0.01225 0.0122,-0.03208 0,-0.04432"
     style="fill:#505051;fill-opacity:1;fill-rule:nonzero;stroke:none;stroke-width:0.004358"
     id="path513" /><path
     d="m 40.476495,12.145859 -0.247926,0.247752 c -0.01225,0.01225 -0.01225,0.03208 0,0.04432 0.0061,0.0061 0.01416,0.0092 0.02218,0.0092 0.008,0 0.01599,-0.003 0.02214,-0.0092 l 0.247884,-0.247796 c 0.01225,-0.0122 0.01225,-0.03203 4.3e-5,-0.04428 -0.01225,-0.01229 -0.03208,-0.01225 -0.04432,-4.3e-5"
     style="fill:#505051;fill-opacity:1;fill-rule:nonzero;stroke:none;stroke-width:0.004358"
     id="path515" /><path
     d="m 41.925574,11.986269 c -0.0122,-0.01225 -0.03203,-0.01225 -0.04432,0 l -0.34986,0.349817 c -0.0122,0.0122 -0.0122,0.03207 0,0.04432 0.0061,0.0061 0.01416,0.0092 0.02218,0.0092 0.008,0 0.01604,-0.0031 0.02218,-0.0092 l 0.349817,-0.349816 c 0.01225,-0.01225 0.01225,-0.03208 0,-0.04432"
     style="fill:#505051;fill-opacity:1;fill-rule:nonzero;stroke:none;stroke-width:0.004358"
     id="path517" /><path
     d="m 41.926184,12.145859 -0.247927,0.247752 c -0.01229,0.01225 -0.01229,0.03208 -4.3e-5,0.04432 0.0061,0.0061 0.01416,0.0092 0.02218,0.0092 0.008,0 0.01604,-0.003 0.02214,-0.0092 l 0.247926,-0.247796 c 0.01225,-0.0122 0.01225,-0.03203 0,-0.04428 -0.01225,-0.01229 -0.03207,-0.01225 -0.04428,-4.3e-5"
     style="fill:#505051;fill-opacity:1;fill-rule:nonzero;stroke:none;stroke-width:0.004358"
     id="path519" /><path
     d="m 65.91802,7.8853038 c -1.136567,0 -2.057935,-0.9213248 -2.057935,-2.0579348 0,-1.1365664 0.921368,-2.0579348 2.057935,-2.0579348 1.136566,0 2.057978,0.9213684 2.057978,2.0579348 0,1.13661 -0.921412,2.0579348 -2.057978,2.0579348"
     style="fill:#ffffff;fill-opacity:1;fill-rule:nonzero;stroke:none;stroke-width:0.004358"
     id="path521" /><path
     d="m 65.97938,6.534716 c -0.01761,-0.017563 -0.04611,-0.017563 -0.06376,0 l -0.417714,0.4177579 c -0.01756,0.017606 -0.01756,0.046151 0,0.063757 0.0088,0.00876 0.02035,0.013205 0.03186,0.013205 0.01155,0 0.0231,-0.00445 0.0319,-0.013205 L 65.97938,6.5984735 c 0.01761,-0.017563 0.01761,-0.046151 0,-0.063757"
     style="fill:#505051;fill-opacity:1;fill-rule:nonzero;stroke:none;stroke-width:0.004358"
     id="path523" /><path
     d="m 65.804668,6.3600473 c -0.01756,-0.017563 -0.04611,-0.017606 -0.06371,4.36e-5 L 65.32324,6.7778488 c -0.01761,0.017563 -0.01761,0.046151 0,0.063714 0.0088,0.0088 0.02031,0.013205 0.03186,0.013205 0.01155,0 0.02305,-0.0044 0.03186,-0.013205 l 0.417714,-0.4178015 c 0.01761,-0.017563 0.01761,-0.046108 0,-0.063714"
     style="fill:#505051;fill-opacity:1;fill-rule:nonzero;stroke:none;stroke-width:0.004358"
     id="path525" /><path
     d="m 67.0606,5.2248319 c 0.0075,-0.00754 0.0173,-0.011244 0.02715,-0.011244 0.0097,0 0.01952,0.0037 0.02693,0.011113 0.01495,0.014991 0.01495,0.039222 0,0.054213 l -0.941372,0.9413716 -0.05413,-0.054083 z m 0.142725,0.1427245 c 0.06371,-0.063888 0.06371,-0.1676087 1.31e-4,-0.2313662 -0.03099,-0.030985 -0.07204,-0.047982 -0.115705,-0.047982 -0.0438,0 -0.08498,0.017083 -0.11588,0.048112 l -0.941328,0.9412845 c -0.0076,0.00763 -0.01377,0.016386 -0.01913,0.025581 -0.156322,-0.080231 -0.336569,-0.068551 -0.448961,0.043754 l -0.419763,0.4197626 c -0.01674,0.016778 -0.02175,0.040573 -0.01556,0.061796 5.23e-4,0.010808 0.0045,0.021485 0.01277,0.029678 0.0083,0.00828 0.019,0.01229 0.02981,0.012769 0.02118,0.0061 0.04489,0.00109 0.06162,-0.015558 l 0.419762,-0.4198061 c 0.0967,-0.09666 0.276908,-0.073825 0.401764,0.050989 0.124813,0.1248567 0.147737,0.3051471 0.05108,0.4018076 l -0.419806,0.4197625 c -0.02449,0.024492 -0.02449,0.06415 0,0.088685 0.01225,0.012246 0.02828,0.018347 0.04432,0.018347 0.01604,0 0.03207,-0.0061 0.04432,-0.018347 L 66.19253,6.7770208 c 0.112306,-0.1123057 0.123942,-0.292509 0.04375,-0.448874 0.0091,-0.00532 0.01782,-0.011374 0.02567,-0.019219 l 0.941372,-0.9413716"
     style="fill:#505051;fill-opacity:1;fill-rule:nonzero;stroke:none;stroke-width:0.004358"
     id="path527" /><path
     d="m 64.77557,6.3457531 c -0.0075,0.00745 -0.01726,0.0112 -0.02702,0.0112 -0.0099,0 -0.01966,-0.00375 -0.02719,-0.011244 -0.0149,-0.014904 -0.01486,-0.039135 4.3e-5,-0.054083 l 0.941415,-0.9414151 0.05413,0.054126 z m 1.007657,-1.5145793 0.0991,-0.099145 c 0.08049,-0.080449 0.232151,-0.1670857 0.374875,-0.1670857 0.07234,0 0.13196,0.022879 0.177066,0.067985 0.166083,0.1661269 0.03177,0.4210699 -0.0991,0.5518971 l -0.09914,0.099188 c -0.0604,0.060445 -0.140807,0.093741 -0.226311,0.093741 v 0 c -0.08555,0 -0.165996,-0.033339 -0.226485,-0.093828 -0.124813,-0.1248567 -0.124813,-0.3279831 0,-0.4527526 z m 0.04358,0.6323894 c 0.05678,0.025625 0.118712,0.039527 0.182905,0.039527 v 0 c 0.118974,0 0.230843,-0.046282 0.314996,-0.1304349 l 0.0991,-0.099188 c 0.166476,-0.166432 0.33025,-0.4979887 0.0991,-0.7291806 -0.06851,-0.068508 -0.160374,-0.1047227 -0.265707,-0.1047227 -0.179419,0 -0.362063,0.1023694 -0.463517,0.2038237 l -0.0991,0.099101 c -0.134401,0.1344007 -0.164296,0.3338664 -0.09073,0.4977707 -0.01072,0.00575 -0.02088,0.012551 -0.02968,0.021311 l -0.941372,0.9414587 c -0.03094,0.030855 -0.04798,0.071994 -0.04794,0.1157921 0,0.043754 0.01708,0.08485 0.04807,0.1156613 0.03068,0.030767 0.07182,0.047807 0.115618,0.047807 0.04362,0 0.08467,-0.016953 0.115574,-0.047851 l 0.941458,-0.9414587 c 0.0089,-0.00885 0.01556,-0.018914 0.02122,-0.029416"
     style="fill:#505051;fill-opacity:1;fill-rule:nonzero;stroke:none;stroke-width:0.004358"
     id="path529" /><path
     d="m 74.212819,7.8853038 c -1.136523,0 -2.057891,-0.9213684 -2.057891,-2.0579348 0,-1.13661 0.921368,-2.0579348 2.057891,-2.0579348 1.13661,0 2.057978,0.9213248 2.057978,2.0579348 0,1.1365664 -0.921368,2.0579348 -2.057978,2.0579348"
     style="fill:#ffffff;fill-opacity:1;fill-rule:nonzero;stroke:none;stroke-width:0.004358"
     id="path531" /><path
     d="m 75.021925,6.9556552 h -1.768781 c -0.04358,0 -0.07888,0.035343 -0.07888,0.078923 0,0.043624 0.0353,0.078923 0.07888,0.078923 h 1.768781 c 0.04358,0 0.07888,-0.0353 0.07888,-0.078923 0,-0.04358 -0.0353,-0.078923 -0.07888,-0.078923"
     style="fill:#505051;fill-opacity:1;fill-rule:nonzero;stroke:none;stroke-width:0.004358"
     id="path533" /><path
     d="m 74.137513,6.78042 c -0.444124,0 -0.805446,-0.3613653 -0.805446,-0.8055327 V 5.8342546 h 1.610935 v 0.1406327 c 0,0.4441674 -0.361322,0.8055327 -0.805489,0.8055327 z M 74.943002,5.3934429 V 5.6764515 H 73.332067 V 5.3934429 Z m 0.07892,-0.1578031 h -1.768781 c -0.04358,0 -0.07888,0.035343 -0.07888,0.078923 V 5.722123 c -0.0047,0.010111 -0.0076,0.021311 -0.0076,0.033208 0,0.011941 0.0028,0.023097 0.0076,0.033252 v 0.1863045 c 0,0.5311966 0.432096,0.9633795 0.963249,0.9633795 0.531153,0 0.963292,-0.4321829 0.963292,-0.9633795 V 5.3145631 c 0,-0.04358 -0.0353,-0.078923 -0.07888,-0.078923"
     style="fill:#505051;fill-opacity:1;fill-rule:nonzero;stroke:none;stroke-width:0.004358"
     id="path535" /><path
     d="m 73.836244,4.8126523 c 0.102893,0.076134 0.165909,0.127733 0.165909,0.2251778 0,0.04358 0.03534,0.078923 0.07892,0.078923 0.04358,0 0.07892,-0.035343 0.07892,-0.078923 0,-0.1819029 -0.127428,-0.2762536 -0.229841,-0.3520392 -0.09283,-0.068726 -0.149741,-0.1147026 -0.149741,-0.1909676 0,-0.04358 -0.0353,-0.078923 -0.07888,-0.078923 -0.04358,0 -0.07897,0.035343 -0.07897,0.078923 0,0.1596772 0.118494,0.2473601 0.213672,0.317829"
     style="fill:#505051;fill-opacity:1;fill-rule:nonzero;stroke:none;stroke-width:0.004358"
     id="path537" /><path
     d="m 74.217046,4.7288915 c 0.05652,0.041837 0.07953,0.062537 0.07953,0.099275 0,0.04358 0.03534,0.07888 0.07892,0.07888 0.04358,0 0.07892,-0.0353 0.07892,-0.07888 0,-0.1199322 -0.08293,-0.1812928 -0.143509,-0.2261367 -0.04898,-0.036259 -0.07043,-0.05478 -0.07043,-0.079926 0,-0.04358 -0.0353,-0.078923 -0.07888,-0.078923 -0.04358,0 -0.07892,0.035343 -0.07892,0.078923 0,0.1073376 0.07762,0.1648196 0.134357,0.2067871"
     style="fill:#505051;fill-opacity:1;fill-rule:nonzero;stroke:none;stroke-width:0.004358"
     id="path539" /><path
     d="m 75.537215,5.3311235 h -0.34877 c -0.04358,0 -0.07892,0.035343 -0.07892,0.078923 0,0.04358 0.03534,0.078923 0.07892,0.078923 h 0.269847 v 0.462471 h -0.269847 c -0.04358,0 -0.07892,0.035343 -0.07892,0.078923 0,0.04358 0.03534,0.07888 0.07892,0.07888 h 0.34877 c 0.04358,0 0.07892,-0.0353 0.07892,-0.07888 V 5.4100469 c 0,-0.04358 -0.03534,-0.078923 -0.07892,-0.078923"
     style="fill:#505051;fill-opacity:1;fill-rule:nonzero;stroke:none;stroke-width:0.004358"
     id="path541" /><path
     d="m 57.623221,7.8853038 c -1.136567,0 -2.057935,-0.9213684 -2.057935,-2.0579348 0,-1.13661 0.921368,-2.0579348 2.057935,-2.0579348 1.136566,0 2.057934,0.9213248 2.057934,2.0579348 0,1.1365664 -0.921368,2.0579348 -2.057934,2.0579348"
     style="fill:#ffffff;fill-opacity:1;fill-rule:nonzero;stroke:none;stroke-width:0.004358"
     id="path543" /><path
     d="m 57.609406,4.7858942 c 0.573425,0 1.044307,0.3901717 1.081481,0.8817977 h -2.162919 c 0.03717,-0.491626 0.508012,-0.8817977 1.081438,-0.8817977 z M 56.462947,5.793028 h 2.292961 c 0.0346,0 0.06267,-0.028066 0.06267,-0.062668 0,-0.5898989 -0.54244,-1.0698018 -1.20917,-1.0698018 -0.666731,0 -1.209127,0.4799029 -1.209127,1.0698018 0,0.034603 0.02807,0.062668 0.06267,0.062668"
     style="fill:#505051;fill-opacity:1;fill-rule:nonzero;stroke:none;stroke-width:0.004358"
     id="path545" /><path
     d="M 58.817356,6.1338236 H 58.250293 L 58.817356,5.9917528 Z M 57.623264,6.1894316 56.581441,5.928431 H 58.665 Z M 56.39348,6.1338236 V 5.9828624 l 0.602712,0.1509612 z m 2.093104,0.4843481 h -1.754269 c -0.125249,0 -0.230539,-0.086942 -0.258778,-0.2036494 h 2.271825 c -0.02828,0.1167073 -0.133573,0.2036494 -0.258778,0.2036494 z m 0.577522,-0.7881443 h -2.881727 c -0.02484,0 -0.0458,0.018522 -0.04885,0.043188 -0.003,0.024666 0.01277,0.04772 0.03691,0.053778 l 0.127602,0.031944 c -0.0015,0.00475 -0.003,0.00959 -0.003,0.014817 V 6.183069 c 0,0.02715 0.02201,0.049202 0.0492,0.049202 h 1.010184 c 0.0068,0 0.01329,-0.00139 0.01917,-0.00388 l 0.237686,0.05953 0.01037,0.00126 h -1.218279 c -0.0346,0 -0.06267,0.028066 -0.06267,0.062668 0,0.2159389 0.175671,0.3916535 0.39161,0.3916535 h 1.754269 c 0.215895,0 0.391523,-0.1757146 0.391523,-0.3916535 0,-0.034603 -0.02802,-0.062668 -0.06267,-0.062668 h -1.190606 l 0.01037,-0.00126 0.222127,-0.055652 h 1.00927 c 0.02719,0 0.0492,-0.022051 0.0492,-0.049202 V 5.9737542 l -0.0013,-0.00632 0.161507,-0.040442 c 0.0241,-0.00606 0.03992,-0.029111 0.03687,-0.053778 -0.0031,-0.024666 -0.02397,-0.043188 -0.04881,-0.043188"
     style="fill:#505051;fill-opacity:1;fill-rule:nonzero;stroke:none;stroke-width:0.004358"
     id="path547" /><path
     d="m 82.507749,7.8853038 c -1.136566,0 -2.057847,-0.9213248 -2.057847,-2.0579348 0,-1.1365664 0.921281,-2.0579348 2.057847,-2.0579348 1.136567,0 2.057848,0.9213684 2.057848,2.0579348 0,1.13661 -0.921281,2.0579348 -2.057848,2.0579348"
     style="fill:#ffffff;fill-opacity:1;fill-rule:nonzero;stroke:none;stroke-width:0.004358"
     id="path549" /><path
     d="m 83.409855,6.362052 c -0.363021,0 -0.626244,-0.2821369 -0.626244,-0.6708705 0,-0.2863642 0.133354,-0.3148655 0.461076,-0.3148655 0.02528,0 0.05142,1.743e-4 0.07801,3.486e-4 0.02833,1.744e-4 0.05709,3.487e-4 0.08716,3.487e-4 0.402679,0 0.566976,0.1426809 0.566976,0.4925411 0,0.3498167 -0.164297,0.4924976 -0.566976,0.4924976 z M 82.495983,5.532681 c -0.05622,0 -0.108515,0.017824 -0.151223,0.047807 C 82.33081,5.489057 82.299,5.4234693 82.25455,5.3762285 h 0.505964 c -0.04663,0.049986 -0.07975,0.1209345 -0.09195,0.2209506 -0.04663,-0.04005 -0.106771,-0.064498 -0.172576,-0.064498 z m -0.89034,0.829371 c -0.403115,0 -0.567411,-0.1426809 -0.567411,-0.4924976 0,-0.3498602 0.164296,-0.4925411 0.567411,-0.4925411 0.02963,0 0.05883,-1.743e-4 0.08716,-3.487e-4 0.02658,-1.743e-4 0.05273,-3.486e-4 0.07801,-3.486e-4 0.327722,0 0.461077,0.028501 0.461077,0.3148655 0,0.3887336 -0.263223,0.6708705 -0.626245,0.6708705 z m 1.804212,-1.1057117 c -0.02963,0 -0.0584,-1.744e-4 -0.08672,-3.487e-4 -0.02658,-2.179e-4 -0.05317,-3.486e-4 -0.07844,-3.486e-4 -0.07975,0 -0.162553,8.71e-5 -0.240126,0.010982 -0.0096,-0.00689 -0.02179,-0.011026 -0.03443,-0.011026 h -0.927818 c -0.01264,0 -0.02441,0.00397 -0.03399,0.010677 -0.0767,-0.01059 -0.158631,-0.010633 -0.237511,-0.010633 -0.02571,0 -0.05186,1.307e-4 -0.07888,3.486e-4 -0.02789,1.743e-4 -0.05665,3.487e-4 -0.08629,3.487e-4 -0.469356,0 -0.688128,0.1948461 -0.688128,0.6132141 0,0.4183245 0.218772,0.6131706 0.688128,0.6131706 0.387426,0 0.678977,-0.2669275 0.736066,-0.6516517 0.007,-0.00981 0.0109,-0.021659 0.0109,-0.034515 0,-0.078967 0.06406,-0.1432038 0.143379,-0.1432038 0.07888,0 0.143378,0.064237 0.143378,0.1432038 0,0.025102 0.01525,0.046544 0.03704,0.055652 0.0645,0.3734806 0.352998,0.6305154 0.733451,0.6305154 0.469357,0 0.687693,-0.1948461 0.687693,-0.6131706 0,-0.418368 -0.218336,-0.6132141 -0.687693,-0.6132141"
     style="fill:#505051;fill-opacity:1;fill-rule:nonzero;stroke:none;stroke-width:0.004358"
     id="path551" /><path
     d="m 83.58679,5.5503745 c -0.02353,-0.023533 -0.06188,-0.023577 -0.08542,0 l -0.376095,0.3757468 c -0.02353,0.023533 -0.02353,0.061753 0,0.08533 0.01177,0.011767 0.02746,0.01765 0.04271,0.01765 0.01569,0 0.03094,-0.00588 0.04271,-0.01765 L 83.58679,5.6357042 c 0.02353,-0.023533 0.02353,-0.061753 0,-0.08533"
     style="fill:#505051;fill-opacity:1;fill-rule:nonzero;stroke:none;stroke-width:0.004358"
     id="path553" /><path
     d="m 83.549747,5.7216439 -0.26671,0.2664917 c -0.02353,0.023577 -0.02353,0.061797 0,0.08533 0.01177,0.01181 0.02746,0.017693 0.04271,0.017693 0.01569,0 0.03094,-0.00588 0.04271,-0.017693 l 0.266274,-0.2664482 c 0.02353,-0.023577 0.02353,-0.061796 0,-0.085373 -0.02353,-0.023533 -0.06145,-0.023533 -0.08498,0"
     style="fill:#505051;fill-opacity:1;fill-rule:nonzero;stroke:none;stroke-width:0.004358"
     id="path555" /><path
     d="m 81.812648,5.5503745 c -0.02353,-0.023533 -0.06188,-0.023577 -0.08542,0 l -0.375659,0.3757468 c -0.02353,0.023533 -0.02353,0.061753 0,0.08533 0.01177,0.011767 0.02702,0.01765 0.04227,0.01765 0.01569,0 0.03094,-0.00588 0.04271,-0.01765 l 0.376095,-0.3757467 c 0.02353,-0.023533 0.02353,-0.061753 0,-0.08533"
     style="fill:#505051;fill-opacity:1;fill-rule:nonzero;stroke:none;stroke-width:0.004358"
     id="path557" /><path
     d="m 81.775605,5.7216439 -0.266274,0.2664917 c -0.02397,0.023577 -0.02397,0.061797 0,0.08533 0.01177,0.01181 0.02702,0.017693 0.04227,0.017693 0.01569,0 0.03094,-0.00588 0.04271,-0.017693 l 0.26671,-0.2664482 c 0.02353,-0.023577 0.02353,-0.061796 0,-0.085373 -0.02353,-0.023533 -0.06188,-0.023533 -0.08542,0"
     style="fill:#505051;fill-opacity:1;fill-rule:nonzero;stroke:none;stroke-width:0.004358"
     id="path559" /><path
     d="m 49.328465,14.025987 c -1.136567,0 -2.057979,-0.921325 -2.057979,-2.057891 0,-1.13661 0.921412,-2.0579783 2.057979,-2.0579783 1.136566,0 2.057935,0.9213683 2.057935,2.0579783 0,1.136566 -0.921369,2.057891 -2.057935,2.057891"
     style="fill:#ffffff;fill-opacity:1;fill-rule:nonzero;stroke:none;stroke-width:0.004358"
     id="path561" /><path
     d="m 50.730564,11.98531 c -0.0013,0.212496 -0.30798,0.391741 -0.671045,0.391741 -0.347594,0 -0.641018,-0.159677 -0.66856,-0.3669 l -0.0033,-0.01717 c -0.0054,-0.02854 -0.03029,-0.04907 -0.05927,-0.04907 h -2.18e-4 c -0.02907,8.7e-5 -0.05395,0.02092 -0.05914,0.04946 l -0.0036,0.02009 c -0.02698,0.203954 -0.320531,0.363675 -0.668256,0.363675 -0.363632,0 -0.670827,-0.180029 -0.670871,-0.390085 l 4.4e-5,-0.0092 c 3.49e-4,-0.03683 0.01055,-0.07186 0.03125,-0.105638 -0.002,0.01242 -0.0031,0.02519 -0.0031,0.03818 0,0.05243 0.01713,0.102543 0.04951,0.144947 l 8.7e-5,-4.4e-5 0.0027,0.0035 c 0.04205,0.05304 0.104897,0.08581 0.172751,0.09004 l 0.01,-2.18e-4 c 0.158718,-0.01647 0.295734,-0.11771 0.357574,-0.264182 0.002,-0.0047 0.0034,-0.0097 0.0041,-0.01473 0.0042,-0.02894 0.01089,-0.05482 0.02009,-0.07866 0.03504,-0.08794 0.101542,-0.158065 0.18722,-0.197461 0.04977,-0.02292 0.101062,-0.03452 0.152443,-0.03452 0.172838,0 0.323494,0.122547 0.358271,0.291332 0.0058,0.02802 0.03046,0.04816 0.05909,0.04816 v 0 c 0.02863,0 0.05334,-0.02009 0.05909,-0.04811 0.03482,-0.168828 0.185477,-0.291375 0.358707,-0.291375 0.05121,0 0.102413,0.01159 0.152181,0.03452 0.08581,0.03953 0.152225,0.109604 0.186959,0.197374 0.0095,0.02384 0.01612,0.04959 0.0204,0.0787 7.85e-4,0.005 0.0021,0.01 0.0041,0.01469 0.06197,0.146516 0.198987,0.247839 0.357618,0.264269 l 0.01,2.18e-4 c 0.06681,-0.0041 0.128735,-0.036 0.170746,-0.08764 l 0.0077,-0.0098 c 0.03051,-0.04179 0.04659,-0.09038 0.04659,-0.141024 0,-0.01294 -10e-4,-0.02571 -0.0031,-0.03809 l 6.54e-4,10e-4 c 0.02027,0.0326 0.03051,0.06842 0.03059,0.10263 z m 0.07304,-0.173928 c -0.03578,-0.06223 -0.08903,-0.109647 -0.153706,-0.137015 -0.101237,-0.04367 -0.221953,-0.03112 -0.313559,0.03255 -0.0217,0.01499 -0.03077,0.0424 -0.02288,0.06755 0.01111,0.0356 0.0567,0.05291 0.08873,0.0339 0.01917,-0.01142 0.03948,-0.01721 0.06032,-0.01721 0.06576,0 0.119234,0.05347 0.119234,0.119192 0,0.0312 -0.01259,0.05521 -0.02366,0.07029 l -0.002,0.0024 c -0.02009,0.0258 -0.0489,0.04166 -0.08145,0.04493 -0.110257,-0.01333 -0.205436,-0.08324 -0.250802,-0.184082 -0.0057,-0.03526 -0.01438,-0.06724 -0.02637,-0.09745 -0.04615,-0.116707 -0.134445,-0.209968 -0.248668,-0.262569 -0.06572,-0.0302 -0.133878,-0.04554 -0.203083,-0.04554 -0.174015,0 -0.331208,0.09352 -0.417322,0.236508 -0.08611,-0.142986 -0.243307,-0.236508 -0.417409,-0.236508 -0.06894,0 -0.13719,0.01534 -0.202821,0.04554 -0.114006,0.05238 -0.202386,0.145557 -0.249191,0.263005 -0.01181,0.03055 -0.02031,0.06241 -0.02589,0.0971 -0.04528,0.100801 -0.140415,0.17066 -0.250716,0.183995 -0.03221,-0.0033 -0.06171,-0.01948 -0.08154,-0.04497 l -0.0018,-0.0021 c -0.0156,-0.02096 -0.02388,-0.04528 -0.02388,-0.07056 0,-0.06568 0.05343,-0.119148 0.119104,-0.119148 0.02079,0 0.0411,0.0058 0.06032,0.01726 0.01137,0.0067 0.02523,0.0096 0.03831,0.008 0.02501,-0.0028 0.04563,-0.02088 0.05169,-0.04532 0.0061,-0.0244 -0.0035,-0.05003 -0.02423,-0.06432 -0.09208,-0.06354 -0.212191,-0.07583 -0.313166,-0.0326 -0.06485,0.02754 -0.118058,0.07496 -0.152965,0.135577 -0.03181,0.0516 -0.04864,0.110388 -0.04864,0.169962 l 8.7e-5,0.0018 -8.7e-5,0.0024 c 0,0.288107 0.347682,0.513764 0.791544,0.513764 0.330859,0 0.613693,-0.128735 0.731664,-0.315301 0.118756,0.18722 0.400936,0.315214 0.730924,0.315214 0.443863,0 0.7915,-0.225657 0.7915,-0.513721 l -4.3e-5,-0.0017 4.3e-5,-0.0025 c 0,-0.06001 -0.01682,-0.118843 -0.04763,-0.16835"
     style="fill:#505051;fill-opacity:1;fill-rule:nonzero;stroke:none;stroke-width:0.004358"
     id="path563" /><path
     d="m 82.507749,-4.3960632 c -1.136566,0 -2.057847,-0.9213248 -2.057847,-2.0579348 0,-1.1365664 0.921281,-2.0579347 2.057847,-2.0579347 1.136567,0 2.057848,0.9213683 2.057848,2.0579347 0,1.13661 -0.921281,2.0579348 -2.057848,2.0579348"
     style="fill:#ffffff;fill-opacity:1;fill-rule:nonzero;stroke:none;stroke-width:0.004358"
     id="path565" /><path
     d="m 81.976945,-6.7066748 c -0.02397,-0.02057 -0.0597,-0.017955 -0.08019,0.0058 -0.02092,0.023838 -0.0183,0.059792 0.0057,0.080405 0.118538,0.1024566 0.178242,0.2412153 0.178242,0.4124412 0,0.3122942 -0.254071,0.5663221 -0.566104,0.5663221 -0.312469,0 -0.566104,-0.2540279 -0.566104,-0.5663221 0,-0.3122072 0.253635,-0.566235 0.566104,-0.566235 0.06188,0 0.09021,0.00157 0.142071,0.018086 0.02963,0.00963 0.06188,-0.00697 0.07147,-0.036999 0.0096,-0.02994 -0.007,-0.062014 -0.03704,-0.071602 -0.06624,-0.021136 -0.106335,-0.02349 -0.176499,-0.02349 -0.375224,0 -0.680284,0.3051472 -0.680284,0.6802403 0,0.3751366 0.30506,0.6803273 0.680284,0.6803273 0.375224,0 0.680284,-0.3051907 0.680284,-0.6803273 0,-0.2058284 -0.07322,-0.3735678 -0.2179,-0.4986424"
     style="fill:#505051;fill-opacity:1;fill-rule:nonzero;stroke:none;stroke-width:0.004358"
     id="path567" /><path
     d="m 83.500502,-6.8882727 c -0.06537,0 -0.129869,0.00928 -0.192188,0.02763 -0.03007,0.00889 -0.0475,0.040617 -0.03835,0.070774 0.0087,0.030157 0.04053,0.047459 0.0706,0.038568 0.05186,-0.015253 0.105464,-0.022967 0.159939,-0.022967 0.312468,0 0.56654,0.2540278 0.56654,0.566235 0,0.3122942 -0.254072,0.5663221 -0.56654,0.5663221 -0.237076,0 -0.451053,-0.1496102 -0.532112,-0.3723476 -0.0109,-0.029547 -0.04358,-0.044626 -0.07322,-0.034036 -0.02963,0.010808 -0.04489,0.043536 -0.03399,0.073084 0.09762,0.2675812 0.354741,0.4473051 0.639319,0.4473051 0.375223,0 0.680283,-0.3051907 0.680283,-0.6803273 0,-0.3750931 -0.30506,-0.6802403 -0.680283,-0.6802403"
     style="fill:#505051;fill-opacity:1;fill-rule:nonzero;stroke:none;stroke-width:0.004358"
     id="path569" /><path
     d="m 82.895175,-6.2842539 0.0096,9.152e-4 c 0.02746,0 0.05142,-0.019437 0.05622,-0.04711 0.01787,-0.101367 0.07104,-0.1946718 0.14948,-0.2627874 0.02397,-0.020657 0.02615,-0.056654 0.0057,-0.080405 -0.02048,-0.023795 -0.05665,-0.026322 -0.08019,-0.00575 -0.09849,0.085243 -0.164733,0.202124 -0.186958,0.3291161 -0.0057,0.031029 0.01525,0.060576 0.04619,0.066024"
     style="fill:#505051;fill-opacity:1;fill-rule:nonzero;stroke:none;stroke-width:0.004358"
     id="path571" /><path
     d="m 82.582271,-5.9996765 c -0.08629,0 -0.156016,-0.070033 -0.156016,-0.1561035 0,-0.027673 0.0078,-0.053342 0.02048,-0.075873 l 0.0889,0.1265127 c 0.01046,0.01521 0.02789,0.024274 0.04663,0.024274 h 0.13597 c -0.02658,0.048156 -0.07714,0.08119 -0.13597,0.08119 z m 0.372173,-0.9266415 -0.306803,0.5402177 c -0.02092,-0.00588 -0.04271,-0.00924 -0.06537,-0.00924 -0.03443,0 -0.06711,0.00745 -0.09675,0.020526 l -0.38699,-0.5515049 z m -0.251456,0.6730931 c 0.01394,0.016996 0.02397,0.036651 0.02963,0.058354 h -0.06276 z m -0.131612,9.152e-4 -0.03617,-0.051512 c 0.01482,-0.00471 0.03051,-0.00793 0.04707,-0.00793 0.0074,0 0.01438,0.00118 0.02179,0.00218 z m 0.811024,0.057438 h -0.563925 c -0.0087,-0.052732 -0.03486,-0.099624 -0.07191,-0.1347929 l 0.312468,-0.5503718 z m 0.08977,0.1140053 h 8.71e-4 c 0.03138,0 0.05709,-0.025538 0.05709,-0.057003 0,-0.011941 -0.0035,-0.023054 -0.01002,-0.032206 l -0.39222,-0.8311577 0.09631,-0.1693955 c 0.06363,-0.016953 0.128126,-0.050683 0.189573,-0.1124364 0.02223,-0.022226 0.02223,-0.05831 0,-0.080536 -0.02222,-0.022226 -0.0584,-0.022269 -0.08062,0 -0.122459,0.1228084 -0.261044,0.097053 -0.383504,0.074304 -0.0645,-0.011985 -0.12551,-0.023446 -0.178678,-0.010241 -0.03051,0.00754 -0.04881,0.038481 -0.0414,0.068987 0.0074,0.03055 0.03835,0.049289 0.06886,0.041619 0.0292,-0.00719 0.07844,0.002 0.13074,0.011723 0.04663,0.00872 0.0998,0.018129 0.156016,0.020308 l -0.06624,0.1165765 H 82.07239 l 0.149044,-0.2541585 c 0.01046,-0.017606 0.01046,-0.039396 4.35e-4,-0.057133 -0.01046,-0.017737 -0.0292,-0.028719 -0.04968,-0.028719 h -0.316826 c -0.08193,0 -0.148608,0.066634 -0.148608,0.148477 0,0.081843 0.06668,0.1484771 0.148608,0.1484771 0.03138,0 0.05709,-0.025538 0.05709,-0.057003 0,-0.031508 -0.02571,-0.057003 -0.05709,-0.057003 -0.01918,0 -0.03443,-0.015471 -0.03443,-0.034472 0,-0.019001 0.01525,-0.034472 0.03443,-0.034472 h 0.217464 l -0.631039,1.0754237 c -0.01612,0.02715 -0.007,0.062102 0.02005,0.078008 0.0092,0.00536 0.01918,0.00784 0.02876,0.00784 0.01961,0 0.03879,-0.010067 0.04924,-0.028153 l 0.444516,-0.7571589 0.41096,0.5852358 c -0.03312,0.041009 -0.05273,0.092913 -0.05273,0.1493487 0,0.1321781 0.107643,0.2396464 0.23969,0.2396464 0.105899,0 0.195674,-0.069205 0.227488,-0.1647324 h 0.662416"
     style="fill:#505051;fill-opacity:1;fill-rule:nonzero;stroke:none;stroke-width:0.004358"
     id="path573" /><path
     d="m 41.033622,20.166671 c -1.136566,0 -2.057935,-0.92136 -2.057935,-2.057931 0,-1.136614 0.921369,-2.057939 2.057935,-2.057939 1.136566,0 2.057935,0.921325 2.057935,2.057939 0,1.136571 -0.921369,2.057931 -2.057935,2.057931"
     style="fill:#ffffff;fill-opacity:1;fill-rule:nonzero;stroke:none;stroke-width:0.004358"
     id="path575" /><path
     d="m 41.179179,19.065714 -0.006,-0.007 0.08398,-0.768577 0.0037,9.2e-4 c 0.02698,0.0065 0.05404,-0.0098 0.06062,-0.03673 0.0066,-0.02685 -0.0098,-0.054 -0.03674,-0.06062 l -0.05927,-0.01455 c -0.01403,-0.0034 -0.02885,-6.5e-4 -0.0407,0.0076 -0.01181,0.0083 -0.01948,0.02126 -0.02109,0.03561 l -0.09466,0.866855 c -0.0016,0.01416 0.003,0.02827 0.01251,0.03886 0.0079,0.0089 0.01874,0.01455 0.03037,0.01617 L 41.23048,19.3119 41.040602,19.25055 c -0.01002,-0.0033 -0.02079,-0.0033 -0.03081,0 l -0.176194,0.05691 0.129302,-0.163734 c 0.01046,-0.0022 0.02005,-0.0077 0.02728,-0.01582 0.0096,-0.01072 0.01408,-0.02506 0.01233,-0.03936 l -0.10586,-0.868899 c -0.0017,-0.01421 -0.0095,-0.02701 -0.02131,-0.03517 -0.01185,-0.0082 -0.02654,-0.01076 -0.04048,-0.0074 l -0.07274,0.01804 c -0.02689,0.0066 -0.04328,0.03383 -0.03661,0.06071 0.0067,0.02685 0.03391,0.04324 0.06071,0.03652 l 0.01783,-0.0043 0.09452,0.775536 -0.245748,0.311257 c -0.01368,0.01729 -0.01438,0.04152 -0.0018,0.05965 0.0096,0.01374 0.02506,0.02154 0.04114,0.02154 0.0051,0 0.01033,-8.37e-4 0.01543,-0.0025 l 0.317699,-0.102718 0.317698,0.102718 c 0.02048,0.0067 0.04297,-5.62e-4 0.05578,-0.01799 0.01277,-0.01734 0.01299,-0.04097 5.23e-4,-0.05858 l -0.220079,-0.311239"
     style="fill:#505051;fill-opacity:1;fill-rule:nonzero;stroke:none;stroke-width:0.004358"
     id="path577" /><path
     d="m 40.658267,18.28262 c -0.0067,-0.0268 -0.03391,-0.04336 -0.06071,-0.03649 l -0.642805,0.160344 0.738202,-0.554386 c 0.02214,-0.01665 0.02663,-0.04811 0.01,-0.07016 -0.0166,-0.02214 -0.04802,-0.02667 -0.07016,-0.01002 l -0.936011,0.702941 c -0.01904,0.0143 -0.02541,0.04005 -0.01512,0.06157 0.0085,0.01779 0.02623,0.0286 0.04519,0.0286 0.0041,0 0.0081,-4.75e-4 0.01216,-0.0015 l 0.8828,-0.220166 c 0.02685,-0.0067 0.04319,-0.03386 0.03648,-0.0607"
     style="fill:#505051;fill-opacity:1;fill-rule:nonzero;stroke:none;stroke-width:0.004358"
     id="path579" /><path
     d="m 41.025255,16.861694 c 0.04101,0 0.08376,0.03229 0.120934,0.08947 -0.03709,-0.01551 -0.07862,-0.02449 -0.12259,-0.02449 -0.04144,0 -0.08141,0.0079 -0.117928,0.02236 0.03683,-0.05591 0.0791,-0.08733 0.119584,-0.08733 z m -0.325674,0.570288 4.8e-4,0.0041 c 0.0025,0.07212 0.01103,0.14194 0.02523,0.207571 l 0.0085,0.06938 -0.0051,0.0038 c -0.02214,0.0166 -0.02663,0.04803 -0.01,0.07012 0.01656,0.02214 0.04794,0.02671 0.07012,0.01002 l 0.02828,-0.02122 c 0.01434,-0.01076 0.02183,-0.02837 0.0197,-0.04615 l -0.01233,-0.100496 -7.85e-4,-0.0046 c -0.01338,-0.06101 -0.02131,-0.126252 -0.02358,-0.193888 l -1.74e-4,-0.0031 v -0.0027 c -3.05e-4,-0.01103 -4.79e-4,-0.0221 -4.79e-4,-0.03334 0,-0.130827 0.02101,-0.244701 0.05317,-0.333212 0.0048,-0.0051 0.0092,-0.01033 0.01473,-0.01499 0.04149,-0.03482 0.09697,-0.054 0.156235,-0.054 0.07217,0 0.136143,0.02894 0.175801,0.07326 0.03133,0.08799 0.05177,0.200338 0.05177,0.329204 0,0.01094 -1.3e-4,0.02192 -4.35e-4,0.0329 l 4.3e-5,0.0037 -3.49e-4,0.0034 c -0.0019,0.05748 -0.008,0.113395 -0.01817,0.166258 l -6.11e-4,0.0041 -0.01421,0.129694 c -0.002,0.01761 0.0056,0.03495 0.01979,0.04558 l 0.02985,0.02231 c 0.009,0.0067 0.01952,0.01 0.02994,0.01 0.01525,0 0.03033,-0.0069 0.04018,-0.02013 0.01656,-0.02214 0.01203,-0.05352 -0.01015,-0.07012 l -0.0069,-0.0052 0.01089,-0.09927 c 0.01094,-0.05735 0.01752,-0.117841 0.01935,-0.176238 l 7.41e-4,-0.0072 -4.3e-5,-0.01046 c 2.18e-4,-0.0097 3.05e-4,-0.01948 3.05e-4,-0.0292 0,-0.353434 -0.143204,-0.630254 -0.326109,-0.630254 -0.182819,0 -0.326022,0.276733 -0.326022,0.629992 0,0.0097 1.3e-4,0.01931 3.48e-4,0.02885 v 0.01164"
     style="fill:#505051;fill-opacity:1;fill-rule:nonzero;stroke:none;stroke-width:0.004358"
     id="path581" /><path
     d="m 42.370351,18.481044 -0.938495,-0.699637 c -0.02218,-0.01647 -0.05356,-0.01199 -0.07012,0.0102 -0.01652,0.02222 -0.01199,0.0536 0.0102,0.07013 l 0.73951,0.551287 -0.655836,-0.162131 c -0.0268,-0.0066 -0.05404,0.0097 -0.06066,0.03665 -0.0066,0.02681 0.0098,0.054 0.03661,0.06067 l 0.896876,0.221696 c 0.004,9.54e-4 0.008,0.0014 0.01203,0.0014 0.019,0 0.03687,-0.0109 0.04528,-0.02867 0.01015,-0.02162 0.0037,-0.04734 -0.01538,-0.06162"
     style="fill:#505051;fill-opacity:1;fill-rule:nonzero;stroke:none;stroke-width:0.004358"
     id="path583" /><path
     d="m 57.623221,20.166671 c -1.136567,0 -2.057935,-0.92136 -2.057935,-2.057931 0,-1.13657 0.921368,-2.057939 2.057935,-2.057939 1.136566,0 2.057978,0.921369 2.057978,2.057939 0,1.136571 -0.921412,2.057931 -2.057978,2.057931"
     style="fill:#ffffff;fill-opacity:1;fill-rule:nonzero;stroke:none;stroke-width:0.004358"
     id="path585" /><path
     d="m 58.167143,19.474533 c -0.05199,0.01838 -0.109343,-0.009 -0.127777,-0.06088 l -0.0058,-0.0098 c 0.0716,-0.0094 0.13719,-0.03618 0.192013,-0.07566 -5.23e-4,0.0062 4.4e-5,0.01255 0.0023,0.01888 0.0183,0.0519 -0.0089,0.109072 -0.06071,0.127423 z m -1.08767,0 c -0.0519,-0.01835 -0.07923,-0.07552 -0.06088,-0.127423 0.0022,-0.0063 0.0027,-0.01273 0.0022,-0.01901 0.05482,0.03953 0.120498,0.06629 0.192144,0.07579 l -0.0058,0.0098 c -0.01843,0.0519 -0.07566,0.07931 -0.127602,0.06088 z m -0.09426,-1.747994 c 0,-0.111172 0.07753,-0.205959 0.185913,-0.24274 v 1.782383 c -0.108384,-0.03679 -0.185913,-0.13149 -0.185913,-0.242654 z m 0.314386,-0.952266 h 0.08546 c 0.01726,0.03286 0.05125,0.05556 0.09086,0.05556 h 0.304406 c 0.03961,0 0.07361,-0.02271 0.09087,-0.05556 h 0.07578 v 0.55778 l 0.002,0.0098 h -0.651303 l 0.002,-0.0098 z m 0.176325,-0.0604 h 0.304406 c 0.0071,0 0.0129,0.0058 0.0129,0.01286 0,0.0073 -0.0056,0.01294 -0.0129,0.01294 h -0.30441 c -0.0072,0 -0.01294,-0.0057 -0.01294,-0.01294 0,-0.0071 0.0058,-0.01286 0.01294,-0.01286 z m -0.214719,2.568431 v -1.814628 l 0.0093,-4.36e-4 h 0.705516 l 0.0092,4.36e-4 v 1.814628 l -0.0092,4.27e-4 h -0.705516 z m 1.000074,-1.555763 v 1.296989 c 0,0.111164 -0.07757,0.20595 -0.185956,0.242688 v -1.782461 c 0.108384,0.03674 0.185956,0.131568 0.185956,0.242784 z m -0.227051,-0.380366 c 0.0015,-0.0045 0.0028,-0.0091 0.0028,-0.01412 v -0.602842 c 0,-0.02493 -0.02018,-0.0451 -0.04506,-0.0451 h -0.118146 c -0.01626,-0.03552 -0.05195,-0.0604 -0.09352,-0.0604 H 57.47592 c -0.04158,0 -0.07727,0.02488 -0.09352,0.0604 h -0.12782 c -0.02493,0 -0.0451,0.02018 -0.0451,0.0451 v 0.602842 c 0,0.005 0.0014,0.0096 0.0029,0.01412 -0.198899,0.02663 -0.352475,0.186828 -0.352475,0.380366 v 1.296989 c 0,0.102108 0.04301,0.194833 0.112655,0.263781 -0.01717,0.0015 -0.03282,0.01248 -0.03892,0.02972 -0.03491,0.0988 0.01704,0.207532 0.115879,0.242483 0.02083,0.0074 0.04206,0.01086 0.06302,0.01086 0.07831,0 0.151876,-0.04882 0.179462,-0.126604 0.0044,-0.01226 0.0029,-0.02498 -0.0026,-0.03565 h 0.667777 c -0.0055,0.01067 -0.007,0.02339 -0.0027,0.03565 0.02759,0.07778 0.101149,0.126604 0.17955,0.126604 0.02096,0 0.04227,-0.0035 0.06315,-0.01086 0.09866,-0.035 0.150525,-0.143731 0.115618,-0.242483 -0.0061,-0.01724 -0.02162,-0.02828 -0.03874,-0.02976 0.0696,-0.06895 0.112567,-0.161638 0.112567,-0.263746 v -1.296989 c 0,-0.193538 -0.153532,-0.353782 -0.352387,-0.380366"
     style="fill:#505051;fill-opacity:1;fill-rule:nonzero;stroke:none;stroke-width:0.004358"
     id="path587" /><path
     d="m 57.898646,17.796834 h -0.550764 c -0.02488,0 -0.04506,0.02018 -0.04506,0.04507 v 0.07975 c 0,0.02487 0.02018,0.04506 0.04506,0.04506 h 0.550764 c 0.02493,0 0.0451,-0.02019 0.0451,-0.04506 V 17.8419 c 0,-0.02489 -0.02018,-0.04507 -0.0451,-0.04507"
     style="fill:#505051;fill-opacity:1;fill-rule:nonzero;stroke:none;stroke-width:0.004358"
     id="path589" /><path
     d="m 65.91802,20.166671 c -1.136523,0 -2.057891,-0.92136 -2.057891,-2.057931 0,-1.13657 0.921368,-2.057939 2.057891,-2.057939 1.13661,0 2.057978,0.921369 2.057978,2.057939 0,1.136571 -0.921368,2.057931 -2.057978,2.057931"
     style="fill:#ffffff;fill-opacity:1;fill-rule:nonzero;stroke:none;stroke-width:0.004358"
     id="path591" /><path
     d="m 67.100825,18.789965 -0.697498,0.248546 v -1.484505 c 0,-0.0404 -0.03273,-0.07313 -0.07313,-0.07313 -0.04035,0 -0.07313,0.03273 -0.07313,0.07313 v 1.481899 l -0.690045,-0.24594 c -0.01586,-0.0056 -0.03321,-0.0056 -0.04907,0 l -0.693793,0.247234 v -1.441225 c 0,-0.04035 -0.03273,-0.07308 -0.07313,-0.07308 -0.0404,0 -0.07313,0.03273 -0.07313,0.07308 v 1.54495 c 0,0.02375 0.01159,0.04603 0.03099,0.0597 0.01251,0.0089 0.02728,0.01343 0.04214,0.01338 0.0083,0 0.0166,-0.0013 0.02458,-0.0042 l 0.766877,-0.273295 0.766834,0.273295 c 0.01586,0.0057 0.03321,0.0057 0.04907,0 l 0.7915,-0.282046 c 0.03804,-0.01355 0.05787,-0.05534 0.04436,-0.09344 -0.0136,-0.03799 -0.05543,-0.05791 -0.09343,-0.04433"
     style="fill:#505051;fill-opacity:1;fill-rule:nonzero;stroke:none;stroke-width:0.004358"
     id="path593" /><path
     d="m 67.167633,17.008515 c -0.01935,-0.01373 -0.0441,-0.01717 -0.06646,-0.0094 l -0.767313,0.268801 -0.767182,-0.268801 c -0.0094,-0.0033 -0.01922,-0.0039 -0.02902,-0.0033 l -0.008,-7.84e-4 c -0.01708,0 -0.0326,0.0061 -0.04502,0.01591 l -0.757812,0.265446 c -0.03809,0.01338 -0.05814,0.05508 -0.0448,0.09317 0.01334,0.03809 0.05513,0.0584 0.09318,0.04484 l 0.681329,-0.238687 v 1.492571 c 0,0.04039 0.03273,0.07313 0.07313,0.07313 0.0404,0 0.07313,-0.03274 0.07313,-0.07313 v -1.501549 l 0.706867,0.247665 c 0.01565,0.0055 0.03269,0.0055 0.04837,0 l 0.694186,-0.243132 v 1.427815 c 0,0.0404 0.03273,0.07312 0.07313,0.07312 0.04036,0 0.07313,-0.03272 0.07313,-0.07312 v -1.530926 c 0,-0.02371 -0.0115,-0.04593 -0.03085,-0.05966"
     style="fill:#505051;fill-opacity:1;fill-rule:nonzero;stroke:none;stroke-width:0.004358"
     id="path595" /><path
     d="m 49.328421,20.166671 c -1.136523,0 -2.057935,-0.92136 -2.057935,-2.057931 0,-1.13657 0.921412,-2.057939 2.057935,-2.057939 1.13661,0 2.057935,0.921369 2.057935,2.057939 0,1.136571 -0.921325,2.057931 -2.057935,2.057931"
     style="fill:#ffffff;fill-opacity:1;fill-rule:nonzero;stroke:none;stroke-width:0.004358"
     id="path597" /><path
     d="m 50.076777,19.180146 h -1.522031 l -0.457155,-0.484828 h 2.423658 z m 0.613737,-0.559306 c -0.0085,-0.01925 -0.02754,-0.03168 -0.04859,-0.03168 h -2.667313 c -0.02118,0 -0.04036,0.01263 -0.04872,0.03204 -0.0084,0.01947 -0.0044,0.04205 0.01011,0.05747 l 0.557214,0.590989 c 0.01002,0.01064 0.02397,0.0167 0.03861,0.0167 h 1.568314 c 0.01486,0 0.02911,-0.0063 0.03914,-0.01726 l 0.541786,-0.590984 c 0.01421,-0.01551 0.01791,-0.03796 0.0095,-0.05727"
     style="fill:#505051;fill-opacity:1;fill-rule:nonzero;stroke:none;stroke-width:0.004358"
     id="path599" /><path
     d="m 49.45659,16.976963 0.837956,1.445026 H 49.45659 Z m -0.05474,1.551235 h 0.98482 c 0.01896,0 0.03652,-0.01016 0.04598,-0.02664 0.0095,-0.01643 0.0095,-0.03674 -8.7e-5,-0.05311 l -0.983165,-1.69548 c -0.01203,-0.02074 -0.03652,-0.03094 -0.0597,-0.02462 -0.02319,0.0062 -0.03931,0.02728 -0.03931,0.05125 v 1.682405 c -0.001,0.0042 -0.0016,0.0085 -0.0016,0.01312 0,0.02928 0.02375,0.05308 0.05308,0.05308"
     style="fill:#505051;fill-opacity:1;fill-rule:nonzero;stroke:none;stroke-width:0.004358"
     id="path601" /><path
     d="m 49.173233,17.429498 v 0.992491 h -0.87391 z m -0.991358,1.0987 h 1.002689 c 0.0075,0 0.01447,-0.0015 0.02087,-0.0043 0.0064,0.0027 0.01342,0.0043 0.02087,0.0043 0.02929,0 0.05308,-0.0238 0.05308,-0.05308 V 17.28891 c 0,-0.0221 -0.01368,-0.04188 -0.03434,-0.04968 -0.02061,-0.0078 -0.04402,-0.002 -0.05861,0.01456 l -1.044439,1.186199 c -0.01377,0.01564 -0.01713,0.03796 -0.0085,0.05701 0.0085,0.01895 0.0275,0.0312 0.04837,0.0312"
     style="fill:#505051;fill-opacity:1;fill-rule:nonzero;stroke:none;stroke-width:0.004358"
     id="path603" /><path
     d="m 49.177983,16.856944 v 0.197984 l -0.385465,-0.09901 z m -0.612081,0.150395 0.651957,0.167434 c 0.0044,0.0011 0.0088,0.0017 0.01321,0.0017 0.01163,0 0.0231,-0.0038 0.03251,-0.01116 0.01299,-0.01002 0.02057,-0.02549 0.02057,-0.04192 v -0.334826 c 0,-0.01643 -0.0076,-0.0319 -0.02057,-0.04192 -0.01294,-0.01011 -0.02985,-0.01355 -0.04572,-0.0095 l -0.651957,0.167391 c -0.02345,0.006 -0.03988,0.02719 -0.03988,0.05142 0,0.02423 0.01643,0.04537 0.03988,0.05143"
     style="fill:#505051;fill-opacity:1;fill-rule:nonzero;stroke:none;stroke-width:0.004358"
     id="path605" /><path
     d="m 49.328465,7.8853038 c -1.136567,0 -2.057979,-0.9213248 -2.057979,-2.0579348 0,-1.13661 0.921412,-2.0579348 2.057979,-2.0579348 1.136566,0 2.057935,0.9213248 2.057935,2.0579348 0,1.13661 -0.921369,2.0579348 -2.057935,2.0579348"
     style="fill:#ffffff;fill-opacity:1;fill-rule:nonzero;stroke:none;stroke-width:0.004358"
     id="path607" /><path
     d="m 50.634732,6.4977166 0.08206,0.2690629 -0.309157,-0.060489 c -0.017,-0.0034 -0.03473,-5.229e-4 -0.0499,0.00802 -0.1154,0.064934 -0.246532,0.099275 -0.379189,0.099275 -0.203432,0 -0.396404,-0.079446 -0.540479,-0.220079 0.359142,-0.1927108 0.603975,-0.5717696 0.603975,-1.0070902 0,-0.1147897 -0.01717,-0.2255701 -0.04885,-0.3301185 0.411482,0.033121 0.759817,0.3845935 0.759817,0.7828275 0,0.1411992 -0.03839,0.2793042 -0.110911,0.3994107 -0.01076,0.017824 -0.01342,0.039309 -0.0074,0.059182 z m -2.222537,-0.042926 c -0.01102,-0.00623 -0.02336,-0.00946 -0.03587,-0.00946 -0.0047,0 -0.0094,4.358e-4 -0.01403,0.00135 l -0.421288,0.08241 0.112829,-0.3697763 c 0.006,-0.019829 0.0034,-0.041357 -0.0073,-0.059094 -0.0933,-0.1546219 -0.142594,-0.3322539 -0.142594,-0.5138082 0,-0.5491952 0.446738,-0.9959773 0.995934,-0.9959773 0.549151,0 0.995933,0.4467821 0.995933,0.9959773 0,0.5491516 -0.446782,0.9959337 -0.995933,0.9959337 -0.170747,0 -0.339402,-0.044103 -0.487661,-0.1275586 z m 2.371711,0.03068 c 0.07552,-0.1360568 0.115356,-0.2896327 0.115356,-0.4463464 0,-0.4943715 -0.449266,-0.9281668 -0.9629,-0.9316968 -0.181467,-0.3911741 -0.577696,-0.663244 -1.036506,-0.663244 -0.629819,0 -1.142189,0.5124136 -1.142189,1.1422318 0,0.1970687 0.05068,0.3902589 0.146952,0.5607874 l -0.13902,0.4556725 c -0.0075,0.024579 -0.0016,0.05125 0.01564,0.070338 0.01721,0.019044 0.04319,0.027673 0.06833,0.022792 l 0.51481,-0.1006698 c 0.164297,0.087291 0.348771,0.1332676 0.535468,0.1332676 0.139499,0 0.273203,-0.025233 0.396883,-0.07121 0.174581,0.1924928 0.420895,0.3024452 0.681809,0.3024452 0.148607,0 0.295559,-0.036215 0.426822,-0.1049842 l 0.402854,0.078836 c 0.02514,0.00492 0.05112,-0.00375 0.06833,-0.022792 0.01721,-0.019088 0.02319,-0.045759 0.01564,-0.070338 L 50.783906,6.4854706"
     style="fill:#505051;fill-opacity:1;fill-rule:nonzero;stroke:none;stroke-width:0.004358"
     id="path609" /><path
     d="m 48.472336,5.6272932 c -0.04358,0 -0.07892,0.035387 -0.07892,0.078923 0,0.043536 0.03534,0.07888 0.07892,0.07888 0.04358,0 0.07888,-0.035343 0.07888,-0.07888 0,-0.043536 -0.0353,-0.078923 -0.07888,-0.078923"
     style="fill:#505051;fill-opacity:1;fill-rule:nonzero;stroke:none;stroke-width:0.004358"
     id="path611" /><path
     d="m 48.882511,5.6272932 c -0.04362,0 -0.07888,0.035387 -0.07888,0.078923 0,0.043536 0.03526,0.07888 0.07888,0.07888 0.04358,0 0.07888,-0.035343 0.07888,-0.07888 0,-0.043536 -0.0353,-0.078923 -0.07888,-0.078923"
     style="fill:#505051;fill-opacity:1;fill-rule:nonzero;stroke:none;stroke-width:0.004358"
     id="path613" /><path
     d="m 49.292686,5.6272932 c -0.04358,0 -0.07888,0.035387 -0.07888,0.078923 0,0.043536 0.0353,0.07888 0.07888,0.07888 0.04358,0 0.07884,-0.035343 0.07884,-0.07888 0,-0.043536 -0.03526,-0.078923 -0.07884,-0.078923"
     style="fill:#505051;fill-opacity:1;fill-rule:nonzero;stroke:none;stroke-width:0.004358"
     id="path615" /><path
     d="m 65.91802,-4.3960632 c -1.136567,0 -2.057891,-0.9213684 -2.057891,-2.0579348 0,-1.1366099 0.921324,-2.0579347 2.057891,-2.0579347 1.136566,0 2.057978,0.9213248 2.057978,2.0579347 0,1.1365664 -0.921412,2.0579348 -2.057978,2.0579348"
     style="fill:#ffffff;fill-opacity:1;fill-rule:nonzero;stroke:none;stroke-width:0.004358"
     id="path617" /><path
     d="m 66.876431,-5.594949 c -0.02576,0 -0.05029,-0.00837 -0.07086,-0.024231 -0.01604,-0.012333 -0.0377,-0.014556 -0.05587,-0.00558 -0.01813,0.00889 -0.02963,0.027412 -0.02963,0.047633 v 0.2951238 h -0.220907 c 0.0071,-0.021921 0.01081,-0.045062 0.01081,-0.068813 0,-0.1215011 -0.09888,-0.2212993 -0.221474,-0.2225195 -0.121501,0.00122 -0.220384,0.1010184 -0.220384,0.2225195 0,0.023751 0.0037,0.046892 0.01081,0.068813 H 65.860721 V -5.597566 c 0,-0.021616 -0.01316,-0.041096 -0.03325,-0.049245 -0.02009,-0.00815 -0.04306,-0.00318 -0.05809,0.012377 -0.02218,0.02301 -0.0519,0.035648 -0.08367,0.035648 -0.0062,0 -0.0122,-9.152e-4 -0.01817,-0.00183 -0.04746,-0.014686 -0.08232,-0.058484 -0.08232,-0.1107368 0,-0.062232 0.04916,-0.112785 0.110606,-0.1158792 0.02789,0.00244 0.05378,0.01412 0.07356,0.034603 0.01508,0.015602 0.038,0.018739 0.05809,0.010677 0.02009,-0.00811 0.03325,-0.029286 0.03325,-0.050945 v -0.3078055 h 0.303927 c 0.02127,0 0.04044,-0.012638 0.04881,-0.032162 0.0084,-0.019524 0.0043,-0.042142 -0.01033,-0.057526 -0.02079,-0.021834 -0.03221,-0.050335 -0.03221,-0.080231 0,-0.064193 0.05221,-0.1164457 0.112785,-0.1165765 l 0.0071,1.308e-4 c 0.06415,0 0.116402,0.052252 0.116402,0.1164457 0,0.029896 -0.01146,0.058354 -0.03225,0.080187 -0.01464,0.015384 -0.0187,0.038045 -0.01033,0.057569 0.0083,0.019524 0.02754,0.032162 0.04877,0.032162 h 0.306716 v 0.2951237 c 0,0.020221 0.0115,0.038699 0.02968,0.047633 0.01817,0.00893 0.03983,0.00675 0.05587,-0.00558 0.02057,-0.015907 0.04506,-0.024274 0.07082,-0.024274 0.06419,0 0.116402,0.052209 0.116402,0.1164457 0,0.064193 -0.05221,0.1164022 -0.116402,0.1164022 z m -1.417047,0.3124686 c -0.02022,0 -0.0387,0.011505 -0.04763,0.029678 -0.0089,0.018173 -0.0068,0.039832 0.0056,0.05587 0.01586,0.020526 0.02423,0.045018 0.02423,0.070818 0,0.06415 -0.05221,0.1164022 -0.116402,0.1164022 -0.06424,0 -0.116446,-0.052252 -0.116446,-0.1164022 0,-0.025756 0.0084,-0.050248 0.02427,-0.070861 0.01233,-0.016038 0.01451,-0.037697 0.0056,-0.055826 -0.0089,-0.018173 -0.02741,-0.029678 -0.04768,-0.029678 h -0.295081 v -0.3066725 c 0,-0.021267 -0.01268,-0.040486 -0.03221,-0.04881 -0.01957,-0.00837 -0.04219,-0.00431 -0.05757,0.010372 -0.02175,0.020744 -0.05021,0.032206 -0.0801,0.032206 -0.06424,0 -0.116446,-0.052209 -0.116533,-0.1137002 l 8.7e-5,-0.00614 c 0,-0.064193 0.05221,-0.1164022 0.116446,-0.1164022 0.02989,0 0.05835,0.011418 0.0801,0.032206 0.01543,0.014643 0.03809,0.018739 0.05757,0.010372 0.01952,-0.00837 0.03221,-0.027586 0.03221,-0.04881 v -0.3037962 h 0.312687 7.84e-4 c 0.02933,0 0.05312,-0.023795 0.05312,-0.053124 0,-0.017345 -0.0084,-0.032772 -0.02122,-0.042447 -0.01961,-0.020962 -0.03042,-0.047851 -0.03116,-0.076526 0.0065,-0.058092 0.0553,-0.1035897 0.115139,-0.1035897 0.06323,0 0.114571,0.050727 0.11614,0.1136131 -0.003,0.026802 -0.01451,0.051642 -0.03434,0.070774 -0.01556,0.014991 -0.02044,0.038002 -0.01233,0.058049 0.0081,0.02009 0.02759,0.033251 0.04925,0.033251 h 0.307893 V -5.92833 C 65.735548,-5.93208 65.718778,-5.934 65.701688,-5.934 l -0.0064,3.051e-4 -0.0096,-7.409e-4 c -0.121458,0 -0.221256,0.098839 -0.22252,0.2214736 0.0011,0.1069889 0.07857,0.1962843 0.179942,0.2161568 0.0187,0.0051 0.03826,0.00806 0.05853,0.00806 0.01708,0 0.03386,-0.00192 0.05012,-0.00567 v 0.2119295 z m -0.722295,-1.2783321 c -0.06419,0 -0.116446,-0.052209 -0.116446,-0.1164022 0,-0.064193 0.05225,-0.1164022 0.116446,-0.1164022 0.02693,0 0.05225,0.00893 0.07321,0.025974 0.01591,0.012856 0.03783,0.015427 0.05631,0.00667 0.01848,-0.0088 0.03024,-0.027455 0.03024,-0.047938 v -0.2976514 h 0.306673 c 0.02122,0 0.0404,-0.012638 0.04881,-0.032162 0.0083,-0.01948 0.0043,-0.042142 -0.01033,-0.057526 -0.02083,-0.021877 -0.03225,-0.050378 -0.03225,-0.080231 0,-0.064193 0.05221,-0.1164022 0.116402,-0.1164022 0.06424,0 0.116446,0.052209 0.116446,0.1164022 0,0.029896 -0.01146,0.058354 -0.03221,0.080231 -0.01469,0.01534 -0.01874,0.038002 -0.01037,0.057482 0.0084,0.019567 0.02754,0.032206 0.04877,0.032206 h 0.306716 v 0.2175078 c -0.02192,-0.0071 -0.04506,-0.010808 -0.06877,-0.010808 -0.122765,0 -0.22265,0.099929 -0.22265,0.2226502 0,0.1227648 0.09989,0.2226066 0.22265,0.2226066 0.02371,0 0.04685,-0.00366 0.06877,-0.010764 v 0.2145443 h -0.213368 c 0.0037,-0.016212 0.0057,-0.033034 0.0057,-0.050073 l -8.7e-5,-0.0017 c 2.61e-4,-0.00471 0.0011,-0.00928 0.0011,-0.014076 0,-0.1227213 -0.09989,-0.222563 -0.22265,-0.222563 -0.119627,0 -0.217246,0.094917 -0.222171,0.2133676 -9.15e-4,0.00819 -0.0015,0.016517 -0.0015,0.024971 0,0.01704 0.0019,0.033862 0.0057,0.050073 h -0.21132 v -0.294688 c 0,-0.020483 -0.01177,-0.039135 -0.03024,-0.047938 -0.01848,-0.00876 -0.0404,-0.00623 -0.05631,0.00667 -0.02096,0.016996 -0.04628,0.025974 -0.07321,0.025974 z m 2.139342,0.6268111 c -0.01708,0 -0.03386,0.00192 -0.05016,0.00567 v -0.2654458 c 0,-0.029329 -0.02719,-0.053124 -0.05652,-0.053124 H 66.50404 c 0.0061,-0.020439 0.0093,-0.04188 0.0093,-0.063714 0,-0.1227648 -0.09984,-0.2226502 -0.222606,-0.2226502 h -0.0034 c -0.122722,0 -0.222607,0.099885 -0.222607,0.2226502 0,0.021834 0.0031,0.043275 0.0093,0.063714 h -0.212278 v -0.3126429 c 0,-0.021616 -0.01316,-0.041096 -0.03321,-0.049245 -0.02009,-0.00802 -0.04306,-0.00318 -0.05809,0.012377 -0.02218,0.022967 -0.0519,0.035605 -0.08367,0.035605 -0.06419,0 -0.116402,-0.052209 -0.116402,-0.1164022 0,-0.064193 0.05221,-0.1164022 0.116402,-0.1164022 0.03177,0 0.06149,0.012638 0.08367,0.035605 0.01503,0.015514 0.038,0.020483 0.05809,0.012377 0.02005,-0.00815 0.03321,-0.02763 0.03321,-0.049245 v -0.3647646 c 0,-0.029329 -0.02375,-0.053124 -0.05313,-0.053124 h -0.269106 c 0.0061,-0.020483 0.0093,-0.04188 0.0093,-0.063714 0,-0.1227649 -0.09989,-0.2226066 -0.22265,-0.2226066 -0.122721,0 -0.222607,0.099842 -0.222607,0.2226066 0,0.021834 0.0031,0.043231 0.0093,0.063714 h -0.269063 c -0.02937,0 -0.05312,0.023795 -0.05312,0.053124 v 0.2664045 c -0.01743,-0.00436 -0.03543,-0.00662 -0.05356,-0.00662 -0.122765,0 -0.22265,0.099929 -0.22265,0.2226502 0,0.1227648 0.09989,0.2226066 0.22265,0.2226066 0.01813,0 0.03613,-0.00222 0.05356,-0.00658 v 0.2564248 l -0.001,0.010503 v 0.2657073 c -0.02044,-0.0061 -0.04188,-0.00933 -0.06367,-0.00933 -0.122765,0 -0.222651,0.099885 -0.222651,0.2226502 l 4.4e-5,0.0017 -4.4e-5,0.00174 c 0,0.1227213 0.09989,0.2226067 0.222651,0.2226067 0.02179,0 0.04323,-0.00318 0.06367,-0.00928 v 0.2691065 c 0,0.029286 0.02375,0.053081 0.05312,0.053081 h 0.265446 c -0.0037,0.016299 -0.0057,0.033077 -0.0057,0.050161 0,0.1227213 0.09989,0.2226067 0.222651,0.2226067 0.122764,0 0.22265,-0.099885 0.22265,-0.2226067 0,-0.017127 -0.0019,-0.033905 -0.0057,-0.050161 h 0.26148 l 0.0047,4.793e-4 h 0.364765 3.48e-4 c 0.03151,1.308e-4 0.05352,-0.023664 0.05352,-0.053124 0,-0.017345 -0.0083,-0.032772 -0.02118,-0.042447 -0.02035,-0.021703 -0.03147,-0.049681 -0.03147,-0.079446 0,-0.063496 0.05169,-0.1157049 0.114179,-0.1163151 0.06354,6.102e-4 0.115226,0.052819 0.115226,0.1163151 0,0.03177 -0.01264,0.061535 -0.0356,0.083674 -0.01556,0.015035 -0.01878,0.038045 -0.01068,0.058092 0.0081,0.02009 0.02933,0.033252 0.05094,0.033252 h 0.364808 c 0.02929,0 0.05308,-0.023795 0.05308,-0.053124 v -0.2654893 c 0.0163,0.00375 0.03308,0.00567 0.05016,0.00567 0.122765,0 0.22265,-0.099885 0.22265,-0.2226067 0,-0.1227648 -0.09989,-0.2226502 -0.22265,-0.2226502"
     style="fill:#505051;fill-opacity:1;fill-rule:nonzero;stroke:none;stroke-width:0.004358"
     id="path619" /><path
     d="m 67.024255,-7.0316073 c -0.0066,-0.022095 -0.01669,-0.043231 -0.0302,-0.062799 -0.04153,-0.060184 -0.11004,-0.096137 -0.183298,-0.096137 -0.04454,0 -0.0876,0.013205 -0.125423,0.038786 -0.09949,0.070033 -0.124247,0.2083995 -0.05517,0.3084592 0.01347,0.019567 0.02963,0.036477 0.04794,0.050509 l -0.181642,0.1252925 -0.169003,-0.2450503 c -0.01,-0.014512 -0.02641,-0.022923 -0.04371,-0.022923 l -0.0085,6.537e-4 c -0.02022,0.00327 -0.03678,0.017911 -0.04253,0.037566 -0.0075,0.025799 -0.02323,0.047546 -0.04545,0.06293 -0.05129,0.035256 -0.126818,0.02118 -0.161944,-0.029765 -0.01765,-0.025581 -0.02432,-0.056567 -0.01869,-0.087116 0.0056,-0.030637 0.02284,-0.05722 0.04842,-0.07487 0.02196,-0.015122 0.04846,-0.022095 0.075,-0.020178 0.02022,0.00157 0.03992,-0.00867 0.05012,-0.026453 0.0102,-0.017737 0.0093,-0.039745 -0.0023,-0.05661 L 66.008884,-7.3743204 66.2613,-7.5484661 c 0.01752,-0.012115 0.02615,-0.033426 0.02188,-0.054257 -0.0042,-0.020788 -0.0204,-0.03713 -0.04118,-0.041488 -0.02946,-0.0061 -0.05504,-0.023054 -0.07204,-0.047677 -0.03648,-0.052819 -0.02314,-0.1254668 0.0285,-0.1611152 l 0.0037,-0.00257 c 0.05134,-0.035431 0.126905,-0.021224 0.161987,0.029721 0.017,0.024579 0.02375,0.054519 0.01904,0.084284 -0.0034,0.020962 0.0061,0.041924 0.02414,0.053255 0.018,0.011287 0.04096,0.010808 0.05844,-0.00126 l 0.252416,-0.1741457 0.169003,0.2450503 c 0.01164,0.016865 0.0319,0.025494 0.05217,0.022269 0.02018,-0.00327 0.03674,-0.017824 0.04253,-0.037479 0.0076,-0.02593 0.02332,-0.047677 0.0455,-0.062973 0.05125,-0.035387 0.126818,-0.021223 0.161943,0.029678 0.03643,0.052862 0.02314,0.1255104 -0.02968,0.1619433 -0.02205,0.015253 -0.04833,0.022356 -0.07505,0.020221 -0.02048,-0.00179 -0.03992,0.00867 -0.05016,0.026453 -0.0102,0.017781 -0.0093,0.039789 0.0023,0.056654 l 0.169046,0.2450067 z m 0.299176,-0.1418529 -0.151266,-0.219251 c 0.01678,-0.00636 0.03282,-0.01473 0.04785,-0.025102 0.100975,-0.069684 0.126469,-0.2085739 0.05679,-0.3096795 -0.04153,-0.060228 -0.110127,-0.096181 -0.183385,-0.096181 -0.04524,0 -0.0889,0.013641 -0.126295,0.039353 -0.01495,0.010328 -0.02846,0.0224 -0.04036,0.03591 L 66.7755,-7.9677057 c -0.008,-0.011636 -0.02153,-0.018652 -0.03539,-0.021223 -0.01381,-0.00244 -0.02946,0.00144 -0.04105,0.00946 l -0.218946,0.1510047 c -0.0065,-0.020308 -0.01613,-0.039745 -0.02854,-0.057743 -0.04153,-0.060227 -0.110083,-0.096181 -0.183385,-0.096181 -0.04524,0 -0.0889,0.013597 -0.125118,0.038612 l -0.0016,0.00113 -0.0021,0.00139 c -0.101062,0.069728 -0.126557,0.208661 -0.05683,0.3096795 0.01242,0.017955 0.02715,0.033774 0.04384,0.047153 L 65.90451,-7.431323 c -0.02384,0.016735 -0.02976,0.049594 -0.0132,0.073607 l 0.151223,0.2191638 c -0.01674,0.00632 -0.03277,0.01473 -0.04776,0.025059 -0.04894,0.033774 -0.08184,0.084589 -0.09256,0.1431167 -0.01072,0.058528 0.002,0.117666 0.03574,0.1666064 0.04158,0.060271 0.110127,0.096225 0.183385,0.096225 0.04528,0 0.08895,-0.013641 0.126294,-0.039396 0.01495,-0.010285 0.02846,-0.022357 0.04031,-0.035823 l 0.151266,0.219251 c 0.01,0.014425 0.02676,0.02179 0.04375,0.02179 0.01146,0 0.02301,-0.00331 0.03269,-0.00998 l 0.300267,-0.2071358 c 0.01782,-0.01229 0.02636,-0.034167 0.0217,-0.055303 -0.0048,-0.021136 -0.02179,-0.037261 -0.04314,-0.040791 -0.03155,-0.00523 -0.05888,-0.022531 -0.07692,-0.048679 -0.03608,-0.052296 -0.02314,-0.1246824 0.02806,-0.1607231 0.05129,-0.03469 0.126164,-0.020265 0.161072,0.030245 0.01804,0.026192 0.02449,0.057831 0.01817,0.089165 -0.0043,0.021223 0.0061,0.042011 0.0241,0.053908 0.01809,0.011941 0.04288,0.010764 0.06066,-0.00153 l 0.300092,-0.207005 c 0.01168,-0.00793 0.01965,-0.020221 0.02223,-0.034123 0.0026,-0.013859 -4.79e-4,-0.028196 -0.0085,-0.039789"
     style="fill:#505051;fill-opacity:1;fill-rule:nonzero;stroke:none;stroke-width:0.004358"
     id="path621" /><path
     d="m 41.033622,-4.3960632 c -1.136566,0 -2.057935,-0.9213684 -2.057935,-2.0578912 0,-1.13661 0.921369,-2.0579783 2.057935,-2.0579783 1.13661,0 2.057935,0.9213683 2.057935,2.0579783 0,1.1365228 -0.921325,2.0578912 -2.057935,2.0578912"
     style="fill:#ffffff;fill-opacity:1;fill-rule:nonzero;stroke:none;stroke-width:0.004358"
     id="path623" /><path
     d="m 41.030615,-7.4508905 c -0.228359,0 -0.414184,0.1858252 -0.414184,0.4141844 0,0.2283592 0.185825,0.4141843 0.414184,0.4141843 0.228403,0 0.414184,-0.1858251 0.414184,-0.4141843 0,-0.2283592 -0.185781,-0.4141844 -0.414184,-0.4141844 z m 0,0.9299101 c -0.28436,0 -0.515682,-0.2313662 -0.515682,-0.5157257 0,-0.284316 0.231322,-0.5156822 0.515682,-0.5156822 0.284359,0 0.515726,0.2313662 0.515726,0.5156822 0,0.2843595 -0.231367,0.5157257 -0.515726,0.5157257"
     style="fill:#505051;fill-opacity:1;fill-rule:nonzero;stroke:none;stroke-width:0.004358"
     id="path625" /><path
     d="m 40.486519,-5.457149 h 1.085098 v -0.5458831 l 3.92e-4,-0.00614 c 0.0018,-0.014774 0.0027,-0.029765 0.0027,-0.044495 0,-0.2444402 -0.244048,-0.4432957 -0.544096,-0.4432957 -0.300048,0 -0.544096,0.1988555 -0.544096,0.4432957 z m 1.135869,0.1015414 h -1.18664 c -0.02807,0 -0.05077,-0.022749 -0.05077,-0.050771 v -0.6472938 c 0,-0.3004405 0.289633,-0.5448371 0.645638,-0.5448371 0.356005,0 0.645638,0.2443966 0.645638,0.5448371 0,0.017824 -10e-4,0.035823 -0.0031,0.053647 v 0.5936468 c 0,0.028022 -0.02271,0.050771 -0.05073,0.050771"
     style="fill:#505051;fill-opacity:1;fill-rule:nonzero;stroke:none;stroke-width:0.004358"
     id="path627" /><path
     d="m 41.036629,-5.7304828 c -0.02101,0 -0.03996,-0.01303 -0.04746,-0.032772 l -0.269106,-0.7112691 c -0.0099,-0.026192 0.0033,-0.055521 0.0295,-0.065414 0.02628,-0.00994 0.05552,0.00327 0.06546,0.029504 l 0.216941,0.5732949 0.17724,-0.5704186 c 0.0083,-0.026758 0.03678,-0.041619 0.06354,-0.033382 0.02676,0.00832 0.04171,0.036738 0.03343,0.06354 l -0.221037,0.7112256 c -0.0064,0.020701 -0.02528,0.034995 -0.04694,0.035692 h -0.0016"
     style="fill:#505051;fill-opacity:1;fill-rule:nonzero;stroke:none;stroke-width:0.004358"
     id="path629" /><path
     d="m 42.03618,-7.3547094 c -0.228403,0 -0.414184,0.1857815 -0.414184,0.4141407 0,0.2284028 0.185781,0.4141844 0.414184,0.4141844 0.228403,0 0.414184,-0.1857816 0.414184,-0.4141844 0,-0.2283592 -0.185781,-0.4141407 -0.414184,-0.4141407 z m 0,0.9298665 c -0.28436,0 -0.515726,-0.2313663 -0.515726,-0.5157258 0,-0.2843595 0.231366,-0.5157257 0.515726,-0.5157257 0.284359,0 0.515682,0.2313662 0.515682,0.5157257 0,0.2843595 -0.231323,0.5157258 -0.515682,0.5157258"
     style="fill:#505051;fill-opacity:1;fill-rule:nonzero;stroke:none;stroke-width:0.004358"
     id="path631" /><path
     d="m 42.627953,-5.4325263 h -0.990574 c -0.02807,0 -0.05077,-0.022749 -0.05077,-0.050771 0,-0.028066 0.0227,-0.050771 0.05077,-0.050771 h 0.939803 v -0.3728269 l 3.49e-4,-0.00614 c 0.0018,-0.014861 0.0027,-0.029809 0.0027,-0.044495 0,-0.2444402 -0.244091,-0.4433393 -0.544096,-0.4433393 -0.158893,0 -0.309549,0.05661 -0.413226,0.1552755 -0.02031,0.019262 -0.05243,0.018522 -0.07173,-0.00179 -0.01935,-0.020308 -0.01857,-0.052427 0.0018,-0.071733 0.122373,-0.1164457 0.29848,-0.1832539 0.483172,-0.1832539 0.355961,0 0.645594,0.2444403 0.645594,0.5448372 0,0.017737 -10e-4,0.035736 -0.0031,0.053647 v 0.4205906 c 0,0.028022 -0.02271,0.050771 -0.05073,0.050771"
     style="fill:#505051;fill-opacity:1;fill-rule:nonzero;stroke:none;stroke-width:0.004358"
     id="path633" /><path
     d="m 42.042194,-5.6343453 c -0.02105,0 -0.03996,-0.01303 -0.04746,-0.032816 l -0.269106,-0.7112256 c -0.0099,-0.026192 0.0033,-0.055521 0.0295,-0.065414 0.02624,-0.00989 0.05552,0.00327 0.06541,0.029504 l 0.216941,0.5732949 0.177284,-0.570375 c 0.0084,-0.026802 0.03674,-0.041706 0.06354,-0.033426 0.02676,0.00832 0.04171,0.036782 0.03343,0.06354 l -0.221081,0.711182 c -0.0064,0.020701 -0.02528,0.035038 -0.04694,0.035692 l -0.0015,4.36e-5"
     style="fill:#505051;fill-opacity:1;fill-rule:nonzero;stroke:none;stroke-width:0.004358"
     id="path635" /><path
     d="m 40.031064,-7.3547094 c -0.228403,0 -0.414141,0.1857815 -0.414141,0.4141407 0,0.2284028 0.185738,0.4141844 0.414141,0.4141844 0.228403,0 0.414184,-0.1857816 0.414184,-0.4141844 0,-0.2283592 -0.185781,-0.4141407 -0.414184,-0.4141407 z m 0,0.9298665 c -0.284359,0 -0.515682,-0.2313663 -0.515682,-0.5157258 0,-0.2843595 0.231323,-0.5157257 0.515682,-0.5157257 0.28436,0 0.515726,0.2313662 0.515726,0.5157257 0,0.2843595 -0.231366,0.5157258 -0.515726,0.5157258"
     style="fill:#505051;fill-opacity:1;fill-rule:nonzero;stroke:none;stroke-width:0.004358"
     id="path637" /><path
     d="m 40.421497,-5.4325263 h -0.985256 c -0.02807,0 -0.05077,-0.022749 -0.05077,-0.050771 v -0.4742376 c 0,-0.3003969 0.289633,-0.5448372 0.645594,-0.5448372 0.19781,0 0.381935,0.074783 0.505179,0.2051747 0.01922,0.020395 0.01835,0.052514 -0.002,0.071776 -0.02035,0.019175 -0.05247,0.018347 -0.07173,-0.002 -0.104156,-0.1102574 -0.261392,-0.1734484 -0.431398,-0.1734484 -0.300005,0 -0.544096,0.1988991 -0.544096,0.4433393 v 0.4234669 h 0.934529 c 0.02807,0 0.05077,0.022705 0.05077,0.050771 0,0.028022 -0.02271,0.050771 -0.05077,0.050771"
     style="fill:#505051;fill-opacity:1;fill-rule:nonzero;stroke:none;stroke-width:0.004358"
     id="path639" /><path
     d="m 40.037078,-5.6343453 c -0.02101,0 -0.03996,-0.01303 -0.04742,-0.032816 l -0.26915,-0.7112256 c -0.0099,-0.026192 0.0033,-0.055521 0.0295,-0.065414 0.02628,-0.00989 0.05548,0.00327 0.06541,0.029504 l 0.216985,0.5732949 0.17724,-0.570375 c 0.0084,-0.026802 0.03678,-0.041706 0.06354,-0.033426 0.0268,0.00832 0.04171,0.036782 0.03343,0.06354 l -0.221037,0.711182 c -0.0064,0.020701 -0.02528,0.035038 -0.04694,0.035692 l -0.0016,4.36e-5"
     style="fill:#505051;fill-opacity:1;fill-rule:nonzero;stroke:none;stroke-width:0.004358"
     id="path641" /><g
     id="g3814"><path
       d="m 15.19798,15.199968 c -0.106601,0.10738 -0.235065,0.166162 -0.339756,0.166162 -0.05578,0 -0.104995,-0.01674 -0.139993,-0.05179 l -4.276069,-4.276601 0.59431,-0.594077 4.276067,4.276334 c 0.101509,0.101509 0.05025,0.316536 -0.114628,0.480015 z m 0.563907,-0.927176 -4.277135,-4.2774028 c -0.12394,-0.1234095 -0.286123,-0.1853838 -0.448246,-0.1853838 -0.162126,0 -0.324306,0.061706 -0.447938,0.1853838 L 9.9941983,10.589466 c -0.1188479,0.118598 -0.1856567,0.279944 -0.1856567,0.447964 0,0.16802 0.06674,0.329359 0.1856567,0.448496 l 4.2757987,4.276601 C 14.424164,15.915846 14.632737,16 14.858178,16 c 0.277786,0 0.565745,-0.12848 0.788809,-0.352601 0.22171,-0.220104 0.350727,-0.506727 0.351523,-0.784535 5.39e-4,-0.226526 -0.08337,-0.436207 -0.236657,-0.590067"
       style="fill:#ffffff;fill-opacity:1;fill-rule:nonzero;stroke:none;stroke-width:0.0267121"
       id="path645" /><path
       d="m 6.2697392,0.63361028 c -1.5060256,0 -2.9217663,0.58659902 -3.9867731,1.65134032 -2.19733428,2.1978688 -2.19733428,5.7746147 0,7.9727504 1.0650068,1.065011 2.4807475,1.651608 3.9865093,1.651608 1.5060256,0 2.9217662,-0.586599 3.9867726,-1.651874 2.198138,-2.1981369 2.198138,-5.7746156 0,-7.9724844 C 9.1915054,1.2202075 7.775501,0.63361028 6.2697392,0.63361028 Z M 6.2694754,12.54292 c -1.6751119,0 -3.2500586,-0.652309 -4.4344727,-1.83699 -2.44468766,-2.4454897 -2.44468766,-6.4239849 0,-8.8692081 C 3.0196805,0.65230874 4.5943635,3.3104626e-7 6.2697392,3.3104626e-7 7.9448511,3.3104626e-7 9.5197978,0.65230874 10.704475,1.8367219 c 2.444958,2.4449558 2.444958,6.4234512 0,8.8689411 -1.1846772,1.184948 -2.7596239,1.837257 -4.4349996,1.837257"
       style="fill:#ffffff;fill-opacity:1;fill-rule:nonzero;stroke:none;stroke-width:0.0267121"
       id="path647" /><path
       d="m 6.2697392,2.1954652 c -1.0887831,0 -2.1126563,0.4239176 -2.8827635,1.1937622 -1.5885658,1.5891009 -1.5885658,4.1750964 0,5.7641971 0.7701072,0.7701095 1.7939804,1.1942965 2.8830341,1.1942965 1.0887831,0 2.1126562,-0.424187 2.8827634,-1.1942965 1.5888328,-1.5893679 1.5888328,-4.1750962 0,-5.7641971 C 8.3824023,2.6193854 7.3585222,2.1954652 6.2697392,2.1954652 Z m 2.706e-4,8.7858668 c -1.25814,0 -2.4412193,-0.489901 -3.3312614,-1.3796786 -1.8353856,-1.8364545 -1.8353856,-4.8241994 0,-6.6606542 0.8900421,-0.8895119 2.0731214,-1.3791444 3.3309908,-1.3791444 1.2578763,0 2.4409486,0.4896314 3.330727,1.3788772 1.8364568,1.836722 1.8361888,4.8244669 2.706e-4,6.6609214 -0.8897784,0.8897786 -2.0725893,1.3796786 -3.330727,1.3796786"
       style="fill:#ffffff;fill-opacity:1;fill-rule:nonzero;stroke:none;stroke-width:0.0267121"
       id="path649" /></g><path
     d="m 49.328421,1.7446203 c -1.136566,0 -2.057935,-0.92136838 -2.057935,-2.05793478 0,-1.13656642 0.921369,-2.05793472 2.057935,-2.05793472 1.13661,0 2.057935,0.9213683 2.057935,2.05793472 0,1.1365664 -0.921325,2.05793478 -2.057935,2.05793478"
     style="fill:#ffffff;fill-opacity:1;fill-rule:nonzero;stroke:none;stroke-width:0.004358"
     id="path651" /><path
     d="m 49.852732,-0.52493896 0.592863,-0.46992314 v 1.30234472 z m -0.938844,0.0597918 0.405817,0.30776196 c 0.01024,0.007757 0.02249,0.0116359 0.03465,0.0116359 0.01264,0 0.02523,-0.00414 0.03565,-0.0124203 l 0.372696,-0.29538524 0.62899,0.88310512 h -2.125397 z m 0.439723,0.18944226 -1.029142,-0.7804743 h 2.013744 z m -1.142319,-0.7223385 0.611165,0.46356046 -0.611165,0.84431892 z m 2.338415,1.51815288 0.0014,-0.002048 0.0016,-0.002528 0.0013,-0.002353 0.0012,-0.00244 0.0011,-0.002746 8.72e-4,-0.00231 9.59e-4,-0.003007 6.1e-4,-0.002353 6.53e-4,-0.003007 3.93e-4,-0.002702 3.48e-4,-0.002746 1.75e-4,-0.003269 8.7e-5,-0.0017 V -1.113574 l -8.7e-5,-0.0017 -1.75e-4,-0.00349 -3.48e-4,-0.0024 -4.36e-4,-0.00318 -5.67e-4,-0.00253 -7.84e-4,-0.00292 -8.28e-4,-0.00257 -10e-4,-0.00266 -0.0011,-0.00266 -0.0012,-0.00244 -0.0015,-0.00266 -0.0013,-0.00218 -0.002,-0.00275 -10e-4,-0.00148 -3.48e-4,-3.922e-4 -0.0022,-0.00244 -0.0017,-0.00187 -0.0019,-0.00174 -0.0023,-0.00209 -0.0014,-0.00105 -0.0031,-0.00231 -10e-4,-6.537e-4 -0.0037,-0.00222 -0.0021,-0.00105 -0.0028,-0.00135 -0.0035,-0.00131 -0.0017,-5.665e-4 -0.0034,-9.152e-4 -0.002,-5.23e-4 -0.0028,-4.794e-4 -0.0028,-4.358e-4 -0.0024,-1.307e-4 -0.0034,-1.743e-4 h -4.79e-4 -2.349049 l -0.001,4.36e-5 -0.0031,1.307e-4 -0.0027,2.615e-4 -0.0027,3.922e-4 -0.003,5.665e-4 -0.0023,5.666e-4 -0.0031,8.716e-4 -0.0023,8.716e-4 -0.0028,0.00113 -0.0024,0.00118 -0.0024,0.00126 -0.0026,0.00157 -0.002,0.00131 -0.0025,0.00187 -0.0019,0.00153 -0.0022,0.002 -0.0019,0.00192 -0.0018,0.002 -0.002,0.0024 -6.97e-4,7.845e-4 -8.28e-4,0.00118 -0.0018,0.0027 -0.0013,0.00214 -0.0015,0.0027 -0.0012,0.00235 -0.0011,0.00275 -9.15e-4,0.00257 -8.28e-4,0.0027 -7.41e-4,0.00279 -5.23e-4,0.00261 -4.36e-4,0.00301 -3.05e-4,0.00253 -1.3e-4,0.00322 -8.8e-5,0.00139 v 1.60047548 l 8.8e-5,0.001569 1.74e-4,0.003181 3.05e-4,0.002746 3.92e-4,0.002702 6.54e-4,0.002963 6.1e-4,0.00244 9.15e-4,0.002963 8.72e-4,0.002353 0.0011,0.002702 0.0012,0.00244 0.0013,0.002397 0.0016,0.002571 0.0014,0.002005 0.0019,0.002528 0.0016,0.001874 0.002,0.002266 0.0019,0.001918 0.002,0.001874 0.0025,0.002005 0.0013,9.5876e-4 8.28e-4,5.6654e-4 0.0018,0.00122 0.0026,0.001569 0.0018,0.001002 0.0032,0.001525 0.0014,6.537e-4 0.0048,0.001743 8.28e-4,2.179e-4 0.0042,0.00109 0.0015,3.0506e-4 0.0039,6.1012e-4 0.0014,1.3074e-4 0.0053,2.6148e-4 h 4.4e-5 2.349005 8.7e-5 l 0.0054,-2.6148e-4 0.0013,-1.3074e-4 0.0041,-6.1012e-4 0.0014,-2.6148e-4 0.0047,-0.00122 3.49e-4,-8.716e-5 0.0048,-0.001787 0.0015,-6.537e-4 0.0031,-0.001482 0.0018,-9.5876e-4 0.0027,-0.001612 0.0017,-0.001133 6.54e-4,-4.358e-4 0.0014,-0.00109 0.0025,-0.001961 0.0021,-0.001874 0.002,-0.001918 0.002,-0.00231 0.0016,-0.00183 0.0019,-0.002528"
     style="fill:#505051;fill-opacity:1;fill-rule:nonzero;stroke:none;stroke-width:0.004358"
     id="path653" /><path
     d="m 82.507749,20.166671 c -1.136566,0 -2.057847,-0.92136 -2.057847,-2.057931 0,-1.136614 0.921281,-2.057939 2.057847,-2.057939 1.136567,0 2.057848,0.921325 2.057848,2.057939 0,1.136571 -0.921281,2.057931 -2.057848,2.057931"
     style="fill:#ffffff;fill-opacity:1;fill-rule:nonzero;stroke:none;stroke-width:0.004358"
     id="path655" /><path
     d="m 81.073096,18.840662 0.528189,-0.63693 h 0.748705 l 0.122459,0.257819 c 0.0061,0.01374 0.02005,0.02245 0.0353,0.02245 v 0 c 0.01525,-4.8e-5 0.02876,-0.0088 0.0353,-0.02254 l 0.121152,-0.257736 h 0.629731 l 0.63714,0.63693 z m 1.434653,-0.891516 c 0.07844,0 0.152094,-0.0207 0.216157,-0.05691 l -0.216593,0.460758 -0.218771,-0.462205 c 0.0645,0.0371 0.139456,0.05836 0.219207,0.05836 z m -0.361714,-0.440158 c 0,-0.199466 0.162118,-0.361801 0.361714,-0.361801 0.199597,0 0.361714,0.162335 0.361714,0.361801 0,0.199509 -0.162117,0.361849 -0.361714,0.361849 -0.199596,0 -0.361714,-0.16234 -0.361714,-0.361849 z m 1.907497,1.343184 -0.715584,-0.715292 c -0.0074,-0.0074 -0.017,-0.01151 -0.02746,-0.01151 h -0.609684 l 0.180857,-0.384624 c 0.04184,-0.06733 0.06624,-0.146777 0.06624,-0.231758 0,-0.242697 -0.197417,-0.440114 -0.440158,-0.440114 -0.24274,0 -0.440158,0.197417 -0.440158,0.440114 0,0.07531 0.01874,0.146254 0.0523,0.208312 l 4.36e-4,6.98e-4 0.192624,0.407372 H 81.58298 c -0.01177,0 -0.02266,0.0052 -0.03007,0.01422 l -0.593559,0.715274 c -0.0096,0.01165 -0.01177,0.0279 -0.0052,0.04168 0.0065,0.01372 0.02048,0.02249 0.03574,0.02249 h 3.035783 c 0.01569,0 0.03007,-0.0096 0.03617,-0.02414 0.0061,-0.01466 0.0026,-0.03151 -0.0083,-0.04271"
     style="fill:#505051;fill-opacity:1;fill-rule:nonzero;stroke:none;stroke-width:0.004358"
     id="path657" /><path
     d="m 82.72347,17.525069 h -0.409216 c -0.02179,0 -0.03922,-0.01752 -0.03922,-0.03913 0,-0.02166 0.01743,-0.03918 0.03922,-0.03918 h 0.409216 c 0.02179,0 0.03922,0.01752 0.03922,0.03918 0,0.02162 -0.01743,0.03913 -0.03922,0.03913"
     style="fill:#505051;fill-opacity:1;fill-rule:nonzero;stroke:none;stroke-width:0.004358"
     id="path659" /><path
     d="m 82.518644,17.729721 c -0.02135,0 -0.03879,-0.01756 -0.03879,-0.03918 v -0.40926 c 0,-0.02162 0.01743,-0.03918 0.03879,-0.03918 0.02179,0 0.03922,0.01756 0.03922,0.03918 v 0.40926 c 0,0.02162 -0.01743,0.03918 -0.03922,0.03918"
     style="fill:#505051;fill-opacity:1;fill-rule:nonzero;stroke:none;stroke-width:0.004358"
     id="path661" /><path
     d="m 74.212819,20.166671 c -1.136566,0 -2.057935,-0.92136 -2.057935,-2.057931 0,-1.136614 0.921369,-2.057939 2.057935,-2.057939 1.13661,0 2.057978,0.921325 2.057978,2.057939 0,1.136571 -0.921368,2.057931 -2.057978,2.057931"
     style="fill:#ffffff;fill-opacity:1;fill-rule:nonzero;stroke:none;stroke-width:0.004358"
     id="path663" /><path
     d="m 72.778209,18.840662 0.528408,-0.63693 h 0.748791 l 0.122024,0.257819 c 0.0065,0.01374 0.02027,0.02245 0.03539,0.02245 h 8.7e-5 c 0.01517,-4.8e-5 0.02894,-0.0088 0.03539,-0.02254 l 0.121066,-0.257736 h 0.629992 l 0.636922,0.63693 z m 1.43461,-0.891516 c 0.07862,0 0.152443,-0.0207 0.216375,-0.05691 l -0.216462,0.460758 -0.218815,-0.462205 c 0.0645,0.0371 0.139281,0.05836 0.218902,0.05836 z m -0.361801,-0.440158 c 0,-0.199466 0.162335,-0.361801 0.361801,-0.361801 0.199553,0 0.361845,0.162335 0.361845,0.361801 0,0.199509 -0.162292,0.361849 -0.361845,0.361849 -0.199466,0 -0.361801,-0.16234 -0.361801,-0.361849 z m 1.90754,1.343184 -0.715278,-0.715292 c -0.0074,-0.0074 -0.0173,-0.01151 -0.02772,-0.01151 h -0.609379 l 0.180682,-0.384624 c 0.04188,-0.06733 0.06615,-0.146777 0.06615,-0.231758 0,-0.242697 -0.197461,-0.440114 -0.440202,-0.440114 -0.242653,0 -0.440114,0.197417 -0.440114,0.440114 0,0.07531 0.019,0.146254 0.05247,0.208312 l 3.05e-4,6.98e-4 0.192842,0.407372 h -0.730053 c -0.01168,0 -0.02271,0.0052 -0.03016,0.01422 l -0.593385,0.715274 c -0.0097,0.01165 -0.01181,0.0279 -0.0054,0.04168 0.0065,0.01372 0.02031,0.02249 0.03547,0.02249 h 3.036 c 0.01586,0 0.03011,-0.0096 0.03621,-0.02414 0.0061,-0.01466 0.0027,-0.03151 -0.0085,-0.04271"
     style="fill:#505051;fill-opacity:1;fill-rule:nonzero;stroke:none;stroke-width:0.004358"
     id="path665" /><path
     d="m 74.428671,17.525069 h -0.409303 c -0.02162,0 -0.03914,-0.01752 -0.03914,-0.03913 0,-0.02166 0.01752,-0.03918 0.03914,-0.03918 h 0.409303 c 0.02162,0 0.03918,0.01752 0.03918,0.03918 0,0.02162 -0.01756,0.03913 -0.03918,0.03913"
     style="fill:#505051;fill-opacity:1;fill-rule:nonzero;stroke:none;stroke-width:0.004358"
     id="path667" /><path
     d="m 65.91802,14.021411 c -1.134039,0 -2.053359,-0.919276 -2.053359,-2.053359 0,-1.134082 0.91932,-2.0533584 2.053359,-2.0533584 1.134082,0 2.053402,0.9192764 2.053402,2.0533584 0,1.134083 -0.91932,2.053359 -2.053402,2.053359"
     style="fill:#ffffff;fill-opacity:1;fill-rule:nonzero;stroke:none;stroke-width:0.004358"
     id="path669" /><path
     d="M 64.925965,13.345268 V 13.11255 h 2.066738 v 0.232718 z m 2.066738,-2.621991 v 0.249583 h -2.066738 v -0.249583 z m -2.066738,0.361758 h 2.066738 v 1.915297 h -2.066738 z m 2.122825,-0.473933 h -2.178913 c -0.03099,0 -0.05609,0.0251 -0.05609,0.05609 v 2.734166 c 0,0.03098 0.0251,0.05609 0.05609,0.05609 h 2.178913 c 0.03099,0 0.05609,-0.0251 0.05609,-0.05609 v -2.734166 c 0,-0.03099 -0.0251,-0.05609 -0.05609,-0.05609"
     style="fill:#505051;fill-opacity:1;fill-rule:nonzero;stroke:none;stroke-width:0.004358"
     id="path671" /><path
     d="m 65.944473,13.128326 c -0.05064,0 -0.09161,0.04105 -0.09161,0.09161 0,0.05068 0.04096,0.09165 0.09161,0.09165 0.0506,0 0.09165,-0.04096 0.09165,-0.09165 0,-0.05055 -0.04105,-0.09161 -0.09165,-0.09161"
     style="fill:#505051;fill-opacity:1;fill-rule:nonzero;stroke:none;stroke-width:0.004358"
     id="path673" /><path
     d="m 65.944473,10.877114 c 0.02048,0 0.03713,-0.0166 0.03713,-0.03709 0,-0.02048 -0.01665,-0.03713 -0.03713,-0.03713 -0.02048,0 -0.03704,0.01665 -0.03704,0.03713 0,0.02048 0.01656,0.03709 0.03704,0.03709"
     style="fill:#505051;fill-opacity:1;fill-rule:nonzero;stroke:none;stroke-width:0.004358"
     id="path675" /></svg>
