<?xml version="1.0" encoding="UTF-8" standalone="no"?>
<svg
   width="49.999996"
   height="50.009296"
   fill="currentColor"
   class="bi bi-list"
   viewBox="0 0 49.999996 50.009296"
   version="1.1"
   id="svg134"
   xml:space="preserve"
   xmlns="http://www.w3.org/2000/svg"
   xmlns:svg="http://www.w3.org/2000/svg"><defs
     id="defs138" /><g
     id="g3814"
     transform="matrix(3.125581,0,0,3.125581,-0.00464958,-1.2368164e-6)"><path
       d="m 15.19798,15.199968 c -0.106601,0.10738 -0.235065,0.166162 -0.339756,0.166162 -0.05578,0 -0.104995,-0.01674 -0.139993,-0.05179 l -4.276069,-4.276601 0.59431,-0.594077 4.276067,4.276334 c 0.101509,0.101509 0.05025,0.316536 -0.114628,0.480015 z m 0.563907,-0.927176 -4.277135,-4.2774028 c -0.12394,-0.1234095 -0.286123,-0.1853838 -0.448246,-0.1853838 -0.162126,0 -0.324306,0.061706 -0.447938,0.1853838 L 9.9941983,10.589466 c -0.1188479,0.118598 -0.1856567,0.279944 -0.1856567,0.447964 0,0.16802 0.06674,0.329359 0.1856567,0.448496 l 4.2757987,4.276601 C 14.424164,15.915846 14.632737,16 14.858178,16 c 0.277786,0 0.565745,-0.12848 0.788809,-0.352601 0.22171,-0.220104 0.350727,-0.506727 0.351523,-0.784535 5.39e-4,-0.226526 -0.08337,-0.436207 -0.236657,-0.590067"
       style="fill:#ffffff;fill-opacity:1;fill-rule:nonzero;stroke:none;stroke-width:0.0267121"
       id="path645" /><path
       d="m 6.2697392,0.63361028 c -1.5060256,0 -2.9217663,0.58659902 -3.9867731,1.65134032 -2.19733428,2.1978688 -2.19733428,5.7746147 0,7.9727504 1.0650068,1.065011 2.4807475,1.651608 3.9865093,1.651608 1.5060256,0 2.9217662,-0.586599 3.9867726,-1.651874 2.198138,-2.1981369 2.198138,-5.7746156 0,-7.9724844 C 9.1915054,1.2202075 7.775501,0.63361028 6.2697392,0.63361028 Z M 6.2694754,12.54292 c -1.6751119,0 -3.2500586,-0.652309 -4.4344727,-1.83699 -2.44468766,-2.4454897 -2.44468766,-6.4239849 0,-8.8692081 C 3.0196805,0.65230874 4.5943635,3.3104626e-7 6.2697392,3.3104626e-7 7.9448511,3.3104626e-7 9.5197978,0.65230874 10.704475,1.8367219 c 2.444958,2.4449558 2.444958,6.4234512 0,8.8689411 -1.1846772,1.184948 -2.7596239,1.837257 -4.4349996,1.837257"
       style="fill:#ffffff;fill-opacity:1;fill-rule:nonzero;stroke:none;stroke-width:0.0267121"
       id="path647" /><path
       d="m 6.2697392,2.1954652 c -1.0887831,0 -2.1126563,0.4239176 -2.8827635,1.1937622 -1.5885658,1.5891009 -1.5885658,4.1750964 0,5.7641971 0.7701072,0.7701095 1.7939804,1.1942965 2.8830341,1.1942965 1.0887831,0 2.1126562,-0.424187 2.8827634,-1.1942965 1.5888328,-1.5893679 1.5888328,-4.1750962 0,-5.7641971 C 8.3824023,2.6193854 7.3585222,2.1954652 6.2697392,2.1954652 Z m 2.706e-4,8.7858668 c -1.25814,0 -2.4412193,-0.489901 -3.3312614,-1.3796786 -1.8353856,-1.8364545 -1.8353856,-4.8241994 0,-6.6606542 0.8900421,-0.8895119 2.0731214,-1.3791444 3.3309908,-1.3791444 1.2578763,0 2.4409486,0.4896314 3.330727,1.3788772 1.8364568,1.836722 1.8361888,4.8244669 2.706e-4,6.6609214 -0.8897784,0.8897786 -2.0725893,1.3796786 -3.330727,1.3796786"
       style="fill:#ffffff;fill-opacity:1;fill-rule:nonzero;stroke:none;stroke-width:0.0267121"
       id="path649" /></g></svg>
